<svg id="Layer_3" data-name="Layer 3" xmlns="http://www.w3.org/2000/svg" viewBox="0 0 162 387"><defs><style>.cls-1{fill:#ffd9c4;}.cls-2{fill:#ececec;}.cls-3{fill:#b5b5b5;}.cls-4{fill:#ffa89c;}</style></defs><path class="cls-1" d="M116.8,238.79c-.18.57-.36,1.14-.56,1.7C116.44,239.94,116.62,239.37,116.8,238.79Z"/><path class="cls-1" d="M114.82,244.09c-.28.65-.57,1.3-.89,1.93C114.24,245.39,114.54,244.75,114.82,244.09Z"/><path class="cls-1" d="M115.72,241.9c-.16.41-.31.82-.48,1.23C115.4,242.73,115.56,242.31,115.72,241.9Z"/><path class="cls-1" d="M107,256.25a41.87,41.87,0,0,0,7-10.21,44.34,44.34,0,0,1-7,10.17Z"/><path class="cls-1" d="M118.06,234.25l.19-1.31c.1-.69.18-1.38.26-2.08a47.58,47.58,0,0,1-1.53,7.36C117.37,236.94,117.73,235.63,118.06,234.25Z"/><path class="cls-2" d="M113.93,246v0Z"/><path class="cls-2" d="M115.24,243.13c-.14.33-.28.64-.42,1Z"/><path class="cls-2" d="M116.24,240.49c-.17.48-.34.95-.52,1.41C115.9,241.43,116.08,241,116.24,240.49Z"/><path class="cls-2" d="M118.89,226.37c-.08,1.5-.2,3-.38,4.49C118.71,229.38,118.83,227.88,118.89,226.37Z"/><path class="cls-2" d="M117,238.22l-.18.57Z"/><path class="cls-3" d="M104.59,258.59c.8-.72,1.59-1.51,2.37-2.34l0,0C106.18,257,105.4,257.84,104.59,258.59Z"/><path class="cls-3" d="M100.13,262.18a39.36,39.36,0,0,0,4.46-3.59,39.08,39.08,0,0,1-4.54,3.52Z"/><path class="cls-3" d="M74.38,269.21c-1,0-1.55-.09-1.55-.09-1.07,0-2.11-.06-3.13-.13,1.48.14,3,.22,4.5.22Z"/><path class="cls-1" d="M118.92,223.17H29.49c0,.43,0,.86,0,1.29,0,12.28,5.1,22.83,13.11,30.91,2.95,3,6.18,6.13,9.87,8.19.75.41,1.5.81,2.27,1.19-2.19,13.75-5.5,41.38-1.19,65.55-4.66,1-14.84,4-13.64,10.93l27.79.27H91.45s10.17,1.81,5-14.71l-.15,0a7.87,7.87,0,0,0-.12-1c-4.43-22.13-1.4-48.6.67-61.83,1.07-.58,2.15-1.21,3.21-1.92a39.08,39.08,0,0,0,4.54-3.52c.81-.75,1.59-1.55,2.35-2.38a44.34,44.34,0,0,0,7-10.17v0c.32-.63.61-1.28.89-1.93.14-.32.28-.63.42-1s.32-.82.48-1.23.35-.93.52-1.41.38-1.13.56-1.7l.18-.57a47.58,47.58,0,0,0,1.53-7.36c.18-1.49.3-3,.38-4.49,0-.64.06-1.27.06-1.91C119,224,118.93,223.6,118.92,223.17ZM69.77,335.08a27.15,27.15,0,0,0-1.12-5.41c-4.3-21.53-1.56-47.16.5-60.72l.55,0c1,.07,2.06.13,3.13.13,0,0,.56.06,1.55.09a45.45,45.45,0,0,0,6.58-.32c-2,15.36-3.69,39,.5,59.91a7.09,7.09,0,0,0,.39,1.31C79.2,330.62,73.22,332.07,69.77,335.08Z"/><circle class="cls-4" cx="69.66" cy="234.03" r="2.02"/></svg>