<svg id="Layer_8" data-name="Layer 8" xmlns="http://www.w3.org/2000/svg" viewBox="0 0 162 387"><defs><style>.cls-1,.cls-3{fill:#3f3f3f;}.cls-2{fill:#1d1d1b;}.cls-3,.cls-4{stroke:#1d1d1b;}.cls-3{stroke-miterlimit:10;}.cls-4{fill:none;stroke-linecap:round;stroke-linejoin:round;}</style></defs><path class="cls-1" d="M118.93,223.17H29.5c0,.43,0,.86,0,1.29,0,12.28,5.1,22.83,13.11,30.91,3,3,6.18,6.13,9.87,8.19.75.41,1.5.81,2.27,1.19-2.19,13.75-5.5,41.38-1.19,65.55l-.21,0,15.26-1.18c-4.17-21.43-1.45-46.76.59-60.21l.55,0c1,.07,2.06.13,3.13.13,0,0,.56.06,1.55.09a45.45,45.45,0,0,0,6.58-.32c-2,15.36-3.69,39,.5,59.91a6.9,6.9,0,0,0,.35,1.2l15.44-.28c-.21-.91-.48-1.88-.81-2.93,0,0-.2-.61-.27-.93-4.43-22.13-1.4-48.6.67-61.83,1.07-.58,2.15-1.21,3.21-1.92a39.08,39.08,0,0,0,4.54-3.52c.81-.75,1.6-1.55,2.35-2.38a44,44,0,0,0,7-10.17v0c.32-.63.61-1.28.9-1.93.13-.32.27-.63.41-1s.32-.82.48-1.23.36-.93.52-1.41.39-1.13.56-1.7l.18-.57a48.81,48.81,0,0,0,1.54-7.36c.17-1.49.29-3,.37-4.49,0-.64.06-1.27.06-1.91C119,224,118.94,223.6,118.93,223.17Z"/><path class="cls-2" d="M81.86,330.11c-2.65.51-8.63,2-12.08,5a27.15,27.15,0,0,0-1.12-5.41l-.09-.51-15.26,1.18c-4.75,1.06-14.61,4.1-13.43,10.89l27.79.27H91.46s8.92,1.59,5.8-11.78L81.82,330A.76.76,0,0,0,81.86,330.11Z"/><path class="cls-3" d="M46.2,231.67s2.32,11.44-5.72,13.62"/><path class="cls-3" d="M105.59,231.67s-2.31,11.44,5.72,13.62"/><path class="cls-4" d="M54.71,264.75c-23.95-12.19-25.06-38.87-25.06-38.87H118.9s-.69,28.41-22.05,38.15"/><path class="cls-4" d="M69.16,269s4,1.07,11.81-.06"/></svg>