<svg id="Layer_5" data-name="Layer 5" xmlns="http://www.w3.org/2000/svg" viewBox="0 0 162 387"><defs><style>.cls-1{fill:#ffd9c4;}.cls-2{fill:#ffa89c;}.cls-3{fill:#b3e1ff;}.cls-4,.cls-6,.cls-7,.cls-8{fill:none;stroke-linecap:round;}.cls-4{stroke:#80ceff;stroke-miterlimit:10;stroke-width:0.75px;}.cls-5{fill:#ececec;}.cls-6,.cls-7,.cls-8{stroke:#b5b5b5;stroke-linejoin:round;}.cls-7{stroke-dasharray:1.98 1.98;}.cls-8{stroke-dasharray:2;}</style></defs><path class="cls-1" d="M118.92,223.17H29.49c0,.43,0,.86,0,1.29,0,12.28,5.1,22.83,13.11,30.91,2.95,3,6.18,6.13,9.87,8.19.75.41,1.5.81,2.27,1.19-2.19,13.75-5.5,41.38-1.19,65.55-4.66,1-14.84,4-13.64,10.93l27.79.27a2.07,2.07,0,0,0,.46-.27l23.33.27s10.17,1.81,5-14.71l-.15,0a7.87,7.87,0,0,0-.12-1c-4.43-22.13-1.4-48.6.67-61.83,1.07-.58,2.15-1.21,3.21-1.92a39.08,39.08,0,0,0,4.54-3.52c.81-.75,1.59-1.55,2.35-2.38a44.34,44.34,0,0,0,7-10.17v0c.32-.63.61-1.28.89-1.93.14-.32.28-.63.42-1s.32-.82.48-1.23.35-.93.52-1.41.38-1.13.56-1.7l.18-.57a47.58,47.58,0,0,0,1.53-7.36c.18-1.49.3-3,.38-4.49,0-.64.06-1.27.06-1.91C119,224,118.93,223.6,118.92,223.17ZM69.77,335.08a27.15,27.15,0,0,0-1.12-5.41c-4.3-21.53-1.56-47.16.5-60.72l.55,0c1,.07,2.06.13,3.13.13,0,0,.56.06,1.55.09a45.45,45.45,0,0,0,6.58-.32c-2,15.36-3.69,39,.5,59.91a7.09,7.09,0,0,0,.39,1.31C79.2,330.62,73.22,332.07,69.77,335.08Z"/><circle class="cls-2" cx="69.66" cy="234.03" r="2.02"/><path class="cls-3" d="M81.48,328.8a7.32,7.32,0,0,0,.39,1.31c-2.66.51-8.63,2-12.08,5a26.94,26.94,0,0,0-1.12-5.4h0a116.15,116.15,0,0,1-1.81-13.49L51.92,317.3a129.08,129.08,0,0,0,1.61,13c-4.66,1-14.84,4-13.64,10.93l27.78.28H91.28l.3,0c1.1.14,9.73.77,4.88-14.73l-.15,0a7.87,7.87,0,0,0-.12-1,112.07,112.07,0,0,1-1.67-11.76l-15,1.12A126.78,126.78,0,0,0,81.48,328.8Z"/><path class="cls-4" d="M53.07,317.42a30,30,0,0,0,.19,4"/><path class="cls-4" d="M54.38,317.35c.21,1.36.36,2.72.46,4.09"/><path class="cls-4" d="M56,317.21c.21,1.36.36,2.72.45,4.09"/><path class="cls-4" d="M57.65,317.08c.21,1.35.36,2.72.46,4.09"/><path class="cls-4" d="M59.29,316.94c.2,1.36.36,2.72.45,4.09"/><path class="cls-4" d="M60.92,316.8c.21,1.36.36,2.73.46,4.09"/><path class="cls-4" d="M62.56,316.67c.2,1.35.36,2.72.45,4.09"/><path class="cls-4" d="M64.19,316.53c.21,1.36.36,2.72.46,4.09"/><path class="cls-4" d="M65.82,316.4c.21,1.35.37,2.72.46,4.09"/><path class="cls-4" d="M80.75,315.26a28.34,28.34,0,0,0,.19,4"/><path class="cls-4" d="M82.06,315.19c.21,1.36.36,2.72.45,4.09"/><path class="cls-4" d="M83.69,315.06c.21,1.35.36,2.72.46,4.09"/><path class="cls-4" d="M85.33,314.92c.2,1.36.36,2.72.45,4.09"/><path class="cls-4" d="M87,314.78c.21,1.36.36,2.73.46,4.09"/><path class="cls-4" d="M88.6,314.65c.2,1.35.36,2.72.45,4.09"/><path class="cls-4" d="M90.23,314.51c.21,1.36.36,2.72.46,4.09"/><path class="cls-4" d="M91.86,314.38c.21,1.35.37,2.72.46,4.09"/><path class="cls-4" d="M93.5,314.24c.21,1.36.36,2.72.46,4.09"/><path class="cls-5" d="M119.51,224.42c0-.44,0-.87,0-1.3H30c0,.43,0,.86,0,1.3,0,24.71,19.68,45.26,44.75,44.75l.51,0a15.55,15.55,0,0,1,14.81-11.84,15.85,15.85,0,0,1,10.28,4.39A45.29,45.29,0,0,0,119.51,224.42Z"/><line class="cls-6" x1="31.85" y1="228.62" x2="32.85" y2="228.62"/><line class="cls-7" x1="34.83" y1="228.62" x2="117.11" y2="228.62"/><line class="cls-6" x1="118.1" y1="228.62" x2="119.1" y2="228.62"/><line class="cls-8" x1="60.46" y1="228.82" x2="49.01" y2="260.36"/><line class="cls-8" x1="74.55" y1="228.75" x2="86.68" y2="257.09"/></svg>