<svg id="shower_bottom" xmlns="http://www.w3.org/2000/svg" viewBox="0 0 162 387"><defs><style>.cls-1{fill:#ffd9c4;}.cls-2{fill:#ffa89c;}.cls-3{fill:#efefef;}.cls-4{fill:none;stroke:#b3e1ff;stroke-miterlimit:10;}</style></defs><path class="cls-1" d="M118.92,223.17H29.49c0,.43,0,.86,0,1.29,0,12.28,5.1,22.83,13.11,30.91,2.95,3,6.18,6.13,9.87,8.19.75.41,1.5.81,2.27,1.19-2.19,13.75-5.5,41.38-1.19,65.55-4.66,1-14.84,4-13.64,10.93l27.79.27H91.45s10.17,1.81,5-14.71l-.15,0a7.87,7.87,0,0,0-.12-1c-4.43-22.13-1.4-48.6.67-61.83,1.07-.58,2.15-1.21,3.21-1.92a39.08,39.08,0,0,0,4.54-3.52c.81-.75,1.59-1.55,2.35-2.38a44.34,44.34,0,0,0,7-10.17v0c.32-.63.61-1.28.89-1.93.14-.32.28-.63.42-1s.32-.82.48-1.23.35-.93.52-1.41.38-1.13.56-1.7l.18-.57a47.58,47.58,0,0,0,1.53-7.36c.18-1.49.3-3,.38-4.49,0-.64.06-1.27.06-1.91C119,224,118.93,223.6,118.92,223.17ZM69.77,335.08a27.15,27.15,0,0,0-1.12-5.41c-4.3-21.53-1.56-47.16.5-60.72l.55,0c1,.07,2.06.13,3.13.13,0,0,.56.06,1.55.09a45.45,45.45,0,0,0,6.58-.32c-2,15.36-3.69,39,.5,59.91a7.09,7.09,0,0,0,.39,1.31C79.2,330.62,73.22,332.07,69.77,335.08Z"/><circle class="cls-2" cx="69.66" cy="234.03" r="2.02"/><path class="cls-3" d="M45.84,257.56s-3.27-12.94,7.36-11c0,0,4.63-6.68,12.94.27,0,0,1-4.77,5.31-2.86,0,0,3.81-6.95,11.58-1.36,0,0,5.31-4.09,6.13,4.08,0,0,1.77,0,2.59,3.54,0,0,9.53,1,9.12,12.67,0,0,1.77,4.22-4.08,6s-8.18-1.91-9.67,2.18-4.5,1.63-4,6.94-3.13,5.86-3.67-1.63-6.54,2-10.9,1.9-5.45-2.72-5.45-2.72-7.22-.27-6-7.49-4.5,4.63-7.63-.14-1-6.67-1-6.67S44.48,261.78,45.84,257.56Z"/><circle class="cls-4" cx="89.29" cy="224.82" r="3.81"/><circle class="cls-3" cx="92.61" cy="235.58" r="4.31"/><circle class="cls-3" cx="50.02" cy="236.4" r="6.95"/><circle class="cls-3" cx="53.65" cy="278.81" r="3.13"/></svg>