<svg id="casual_bottom" xmlns="http://www.w3.org/2000/svg" viewBox="0 0 162 387"><defs><style>.cls-1{fill:#5989aa;}.cls-2{fill:#ededed;}.cls-3{fill:#1d1d1b;}</style></defs><path class="cls-1" d="M118.93,223.17H29.5c0,.43,0,.86,0,1.29,0,12.28,5.1,22.83,13.11,30.91,3,3,6.18,6.13,9.87,8.19.75.41,1.5.81,2.27,1.19-2.19,13.75-5.5,41.38-1.19,65.55l-.21,0,15.26-1.18c-4.17-21.43-1.45-46.76.59-60.21l.55,0c1,.07,2.06.13,3.13.13,0,0,.56.06,1.55.09a45.45,45.45,0,0,0,6.58-.32c-2,15.36-3.69,39,.5,59.91a6.9,6.9,0,0,0,.35,1.2l15.44-.28c-.21-.91-.48-1.88-.81-2.93,0,0-.2-.61-.27-.93-4.43-22.13-1.4-48.6.67-61.83,1.07-.58,2.15-1.21,3.21-1.92a39.08,39.08,0,0,0,4.54-3.52c.81-.75,1.6-1.55,2.35-2.38a44,44,0,0,0,7-10.17v0c.32-.63.61-1.28.9-1.93.13-.32.27-.63.41-1s.32-.82.48-1.23.36-.93.52-1.41.39-1.13.56-1.7l.18-.57a48.81,48.81,0,0,0,1.54-7.36c.17-1.49.29-3,.37-4.49,0-.64.06-1.27.06-1.91C119,224,118.94,223.6,118.93,223.17Z"/><path class="cls-2" d="M81.86,330.11c-2.65.51-8.82,0-12.08,5a27.15,27.15,0,0,0-1.12-5.41l-.09-.51-15.26,1.18c-2.73.61-7.16,1.88-10.2,4.13a3.8,3.8,0,0,0,2.3,6.81l22.26.22H91.46s8.92,1.59,5.8-11.78L81.82,330A.76.76,0,0,0,81.86,330.11Z"/><path class="cls-1" d="M46.2,231.67s2.32,11.44-5.72,13.62"/><path class="cls-3" d="M46.2,231.67a14.28,14.28,0,0,1,.69,4.06,13.06,13.06,0,0,1-.51,4.15,8.64,8.64,0,0,1-2.15,3.65,7,7,0,0,1-3.75,1.76,9.71,9.71,0,0,0,3.19-2.3,9.82,9.82,0,0,0,1.75-3.4,17.82,17.82,0,0,0,.69-3.88A38.61,38.61,0,0,0,46.2,231.67Z"/><path class="cls-1" d="M105.59,231.67s-2.31,11.44,5.72,13.62"/><path class="cls-3" d="M105.59,231.67a38.61,38.61,0,0,0,.09,4,17.82,17.82,0,0,0,.69,3.88,10,10,0,0,0,1.75,3.4,9.71,9.71,0,0,0,3.19,2.3,7,7,0,0,1-3.75-1.76,8.74,8.74,0,0,1-2.15-3.65,12.77,12.77,0,0,1-.5-4.15A13.93,13.93,0,0,1,105.59,231.67Z"/></svg>