<svg id="Layer_1" data-name="Layer 1" xmlns="http://www.w3.org/2000/svg" viewBox="0 0 1920 1080"><defs><style>.cls-1{fill:#5ab5e6;}</style></defs><title>Artboard 6</title><path class="cls-1" d="M1700.89.5h84c-50.33,0-75.78,49.6-82,59.11-52.31,80.48,11.09,89.07,32.17,93.06,18.71,3.53,19.1,5,23.46,6.7,46.37,18,64.9,40.74,77.4,50,2.65,2,7.76,7.55,10.19,9.79a138.11,138.11,0,0,1,16.38,19c32.64,46,37.32,68.43,44.25,99.51h0s3.84,15.34,6,28.93a76.85,76.85,0,0,1,.9,8.69c.48,9.44,1.44,32.64.43,49.68-1.64,27.73-3.84,36.5-15.56,65.14l-12.39,26.38a194,194,0,0,1-21.9,34c-22,27-70.3,62.27-103.2,70.14-1.72.41-3.19,1.54-4.86,2.12l-35.31,9.1c-11.92,2.86-34.75,5.54-45.2,5.41-3.6,0-11.73.16-16.88,0C1465.58,631.58,1417.21,469,1425.3,371.94,1439.54,201,1585.13,165.05,1585.12,165L1646,140.91c7.92-4.16,50.24-37.9-22.59-110.15-7.28-7.22-22.94-25.31-58.15-30.26h135.59Z"/><circle class="cls-1" cx="1672" cy="395" r="1829"/></svg>