<svg id="Layer_1" data-name="Layer 1" xmlns="http://www.w3.org/2000/svg" viewBox="0 0 162 387"><defs><style>.cls-1{fill:#ffd9c4;}.cls-2{fill:#cb8b6f;}.cls-3{fill:#ffbeb5;}.cls-4{fill:#ffa89c;}.cls-5{fill:#ff9924;}.cls-6{fill:#ececec;}.cls-7{fill:#b5b5b5;}</style></defs><path class="cls-1" d="M99.24,59.14A19.31,19.31,0,0,0,80.42,43.88H67.51A19.32,19.32,0,0,0,48.69,59.14L38.46,145.59h72.65Z"/><ellipse class="cls-1" cx="45.84" cy="83.5" rx="6.77" ry="7.45"/><ellipse class="cls-1" cx="102.59" cy="83.48" rx="6.77" ry="7.45"/><ellipse class="cls-2" cx="57.71" cy="82.57" rx="2.91" ry="3.72"/><ellipse class="cls-2" cx="78.96" cy="82.57" rx="2.91" ry="3.72"/><circle class="cls-3" cx="54.49" cy="98.51" r="6.4"/><circle class="cls-3" cx="84" cy="98.51" r="6.4"/><path class="cls-2" d="M68.77,110.33a13.74,13.74,0,0,1-3.23-.37,1,1,0,0,1,.51-1.93c.06,0,6,1.49,9.14-2.39a1,1,0,0,1,1.55,1.26A10,10,0,0,1,68.77,110.33Z"/><path class="cls-4" d="M67.71,93a5.72,5.72,0,0,1-1.88,2.26c-1.26.92-3.25,2.83-2.13,5.18,1.85,3.84,11.67.55,8.54-9.17C69.79,83.66,68,82.57,68,82.57S69.85,88.24,67.71,93Z"/><path class="cls-5" d="M117.42,56.78s-13.41,4.7-16.57,3.13l-.55-.37-.86-7.37c0-7.26-9.36-16-16.62-16H65.25A13.42,13.42,0,0,0,59,38l-9.27-7,2.79,6.54-7.42-2.11,4.49,6-5.72-.88,6.37,6.26A14.81,14.81,0,0,0,48.44,52L46.68,76.1s7.81-11.83,8-21.3c0,0,21,22.6,42.66,17.07a38.77,38.77,0,0,0,4.25,4.3l-.77-5.43C106.5,68.48,112.15,64.13,117.42,56.78Z"/><path class="cls-1" d="M116.8,238.79c-.18.57-.36,1.14-.56,1.7C116.44,239.94,116.62,239.37,116.8,238.79Z"/><path class="cls-1" d="M114.82,244.09c-.28.65-.57,1.3-.89,1.93C114.24,245.39,114.54,244.75,114.82,244.09Z"/><path class="cls-1" d="M115.72,241.9c-.16.41-.31.82-.48,1.23C115.4,242.73,115.56,242.31,115.72,241.9Z"/><path class="cls-1" d="M107,256.25a41.87,41.87,0,0,0,7-10.21,44.34,44.34,0,0,1-7,10.17Z"/><path class="cls-1" d="M118.06,234.25l.19-1.31c.1-.69.18-1.38.26-2.08a47.58,47.58,0,0,1-1.53,7.36C117.37,236.94,117.73,235.63,118.06,234.25Z"/><path class="cls-6" d="M113.93,246v0Z"/><path class="cls-6" d="M115.24,243.13c-.14.33-.28.64-.42,1Z"/><path class="cls-6" d="M116.24,240.49c-.17.48-.34.95-.52,1.41C115.9,241.43,116.08,241,116.24,240.49Z"/><path class="cls-6" d="M118.89,226.37c-.08,1.5-.2,3-.38,4.49C118.71,229.38,118.83,227.88,118.89,226.37Z"/><path class="cls-6" d="M117,238.22l-.18.57Z"/><path class="cls-7" d="M104.59,258.59c.8-.72,1.59-1.51,2.37-2.34l0,0C106.18,257,105.4,257.84,104.59,258.59Z"/><path class="cls-7" d="M100.13,262.18a39.36,39.36,0,0,0,4.46-3.59,39.08,39.08,0,0,1-4.54,3.52Z"/><path class="cls-7" d="M74.38,269.21c-1,0-1.55-.09-1.55-.09-1.07,0-2.11-.06-3.13-.13,1.48.14,3,.22,4.5.22Z"/></svg>