<svg id="Layer_6" data-name="Layer 6" xmlns="http://www.w3.org/2000/svg" viewBox="0 0 162 387"><defs><style>.cls-1{fill:#ffd9c4;}.cls-2{fill:#262626;}.cls-3{fill:#cb8b6f;}.cls-4{fill:#ffbeb5;}.cls-5{fill:#ffa89c;}.cls-6{fill:#3f3f3f;}</style></defs><path class="cls-1" d="M99.19,59.14A19.31,19.31,0,0,0,80.37,43.88H67.47A19.33,19.33,0,0,0,48.64,59.14L38.41,145.59h72.65Z"/><ellipse class="cls-1" cx="45.79" cy="83.5" rx="6.77" ry="7.45"/><ellipse class="cls-1" cx="102.54" cy="83.48" rx="6.77" ry="7.45"/><path class="cls-2" d="M103.44,75.77c-1.27-.43-10.62,2.13-12.62,2.68a1.27,1.27,0,0,0-.69-.32,75.27,75.27,0,0,0-9.25-1.53c-3.6-.24-7.21.05-10.44,2.11a3.68,3.68,0,0,1-4-.06c-2.22-1.41-4.67-1.79-7.94-2.08a15.14,15.14,0,0,0-3.8.15c-2.19.38-4.92.84-7.67,1.37l-.43-2-.49,2.36c-.42.45-.18,1.22,0,1.8.37,1.59,1.06,3.12,1.31,4.72a5.21,5.21,0,0,0,4,4.53,20.42,20.42,0,0,0,11.67-.05,4.92,4.92,0,0,0,3.79-5.18,3.15,3.15,0,0,1,.34-1.51c.34-.67,0-1.94,1.27-2s1,1.17,1.3,1.87a6.78,6.78,0,0,1,.38,2.1,4.88,4.88,0,0,0,3.72,4.67,20.39,20.39,0,0,0,11.81,0,5.14,5.14,0,0,0,3.89-4.43c.25-1.57.91-3.07,1.28-4.63C92,80.3,94.25,79.06,98,77.81c5.1-1.7,8.24-.75,8.24-.75A16.07,16.07,0,0,0,103.44,75.77ZM62.12,88.25a28.92,28.92,0,0,1-3.56.68A9.08,9.08,0,0,1,56,89a29,29,0,0,1-2.88-.45A6.14,6.14,0,0,1,48.71,81,4,4,0,0,1,51,78.82a19.56,19.56,0,0,1,12.31-.06c1.69.53,1.89,1.09,1.62,3A5.59,5.59,0,0,0,65,83.49C65.38,85.86,64.47,87.58,62.12,88.25Zm26.11-5.47c0,.3-.12.6-.17.9a8.09,8.09,0,0,1-.77,2.81,5.19,5.19,0,0,1-3.33,2,16.93,16.93,0,0,1-8.57-.08,5.35,5.35,0,0,1-2.48-1.27,4,4,0,0,1-1-3,7.67,7.67,0,0,0,.12-2.43,4.19,4.19,0,0,1-.34-1.28,1.33,1.33,0,0,1,.53-1,2.52,2.52,0,0,1,.77-.38,24,24,0,0,1,3.46-.87,18.26,18.26,0,0,1,4.3-.44,22.74,22.74,0,0,1,4.61.88A4,4,0,0,1,88,80.22,3.72,3.72,0,0,1,88.23,82.78Z"/><ellipse class="cls-3" cx="57.66" cy="82.57" rx="2.91" ry="3.72"/><ellipse class="cls-3" cx="78.91" cy="82.57" rx="2.91" ry="3.72"/><circle class="cls-4" cx="54.44" cy="98.51" r="6.4"/><circle class="cls-4" cx="83.95" cy="98.51" r="6.4"/><path class="cls-3" d="M68.72,110.33a13.94,13.94,0,0,1-3.23-.37A1,1,0,1,1,66,108c.06,0,6,1.49,9.14-2.39a1,1,0,0,1,1.41-.14,1,1,0,0,1,.14,1.4A9.94,9.94,0,0,1,68.72,110.33Z"/><path class="cls-5" d="M67.66,93a5.72,5.72,0,0,1-1.88,2.26c-1.26.92-3.25,2.83-2.12,5.18,1.84,3.84,11.66.55,8.53-9.17-2.45-7.63-4.26-8.72-4.26-8.72S69.81,88.24,67.66,93Z"/><path class="cls-6" d="M65,76.52s-9.89-2.82-15.16-.73"/><path class="cls-6" d="M71.52,76.52s9.9-2.82,15.17-.73"/><path class="cls-6" d="M100,50.45c.54-5.26-.91-11.07-5.63-13.44s-8.72.19-8.36-2,3.27-1.28,3.27-1.28c-4-4.54-7.81-1.27-7.81-1.27-3.63-3.81-5.63-.18-5.63-.18-6.9-5.63-6-1.27-14,.18S54.81,38.65,51.73,39s-2.91-2.9-2.91-2.9c-4.54,4.17,2.36,9.08-1.27,10s-4.9.9-7.45,8.17,4.91,8.17,4.72,12,1.15,12.4,2.64,9c1.81-4.18,9-12.26,9.35-5.54s-8.35,9.62-8.35,9.62C71.34,79,61.72,59.9,68.62,55.9c5.54-3.2,8,.37,8.8,1.91l.28.64a16.45,16.45,0,0,0,7.54-1c.24-.11.47-.24.71-.38,1.84-.92,6.76-3,8.55.29,2.22,4,.73,7.94,4.45,10.58l2.9,9.58-.54-9.27C105.31,56.27,99.49,55.72,100,50.45Zm-33.5-2.08h0l-.11.09Z"/><path d="M77.7,58.45a10.19,10.19,0,0,0,2.63-.62,3.81,3.81,0,0,0,2-1.5,3.12,3.12,0,0,0,.18-2.41,8,8,0,0,0-2.9-4.2,7.35,7.35,0,0,0-2.31-1.19,6.73,6.73,0,0,0-2.61-.28,9.68,9.68,0,0,0-2.63.57A7.42,7.42,0,0,1,77.46,48a7.95,7.95,0,0,1,5.74,5.79,3.55,3.55,0,0,1-.37,2.87,4.23,4.23,0,0,1-2.39,1.55A8.78,8.78,0,0,1,77.7,58.45Z"/><path d="M56.9,68.71a38.36,38.36,0,0,1-.64-4.37,22.09,22.09,0,0,1-.1-4.46,10.05,10.05,0,0,1,1.45-4.27,9.58,9.58,0,0,1,1.45-1.73,9.94,9.94,0,0,1,1.84-1.25,10.77,10.77,0,0,0-2.8,3.27A11.32,11.32,0,0,0,56.91,60a36.82,36.82,0,0,0-.08,4.34C56.86,65.77,56.9,67.23,56.9,68.71Z"/><path d="M79.42,58.45A9.92,9.92,0,0,0,82.09,58a5.75,5.75,0,0,0,2.27-1.29,6,6,0,0,0,.8-1,5.45,5.45,0,0,0,.46-1.18,7.49,7.49,0,0,0,.16-2.59,6.22,6.22,0,0,0-2.16-4.55,5.21,5.21,0,0,0-2.4-1,8.43,8.43,0,0,0-2.7,0,6.39,6.39,0,0,1,5.43.51,5.21,5.21,0,0,1,1.86,2.19,9.14,9.14,0,0,1,.48,1.36c.08.46.19.93.23,1.4a7.64,7.64,0,0,1-.22,2.85A5.7,5.7,0,0,1,85.71,56a5,5,0,0,1-1,1.08A7.21,7.21,0,0,1,79.42,58.45Z"/><path d="M85.87,54.63a13.08,13.08,0,0,1,2.2-2.57,4.59,4.59,0,0,1,3.18-1.35,2.61,2.61,0,0,1,1.64.86,5,5,0,0,1,1,1.5A26.09,26.09,0,0,1,95,56.28a38.87,38.87,0,0,0,2.08,6.31,6.29,6.29,0,0,0,2,2.54,3.81,3.81,0,0,0,1.47.65,5.43,5.43,0,0,0,1.66,0,4.19,4.19,0,0,1-3.33-.36,7,7,0,0,1-2.27-2.58,34.14,34.14,0,0,1-2.28-6.37,24.55,24.55,0,0,0-1-3.14,3.07,3.07,0,0,0-2-2.07,4.15,4.15,0,0,0-2.88,1.07A14.54,14.54,0,0,0,85.87,54.63Z"/><path d="M85.6,49.73a11.6,11.6,0,0,1,2.49-3.23,7.27,7.27,0,0,1,3.69-1.92,5.22,5.22,0,0,1,4,1.09,9.22,9.22,0,0,1,2.59,3.15,13.62,13.62,0,0,0-2.91-2.68,5.16,5.16,0,0,0-3.6-.82,8,8,0,0,0-3.44,1.62A18.77,18.77,0,0,0,85.6,49.73Z"/><path d="M102.31,61.9a7.38,7.38,0,0,1-3.7-3.3,10.42,10.42,0,0,1-1-2.32c-.26-.81-.41-1.64-.58-2.43a14.18,14.18,0,0,0-1.61-4.51,2.49,2.49,0,0,0-1.83-1.2,4.9,4.9,0,0,0-2.34.5,4.6,4.6,0,0,1,2.36-.87A3,3,0,0,1,95.87,49a12.11,12.11,0,0,1,1.87,4.69,17.17,17.17,0,0,0,1.37,4.64,9.21,9.21,0,0,0,1.34,2A6.88,6.88,0,0,0,102.31,61.9Z"/><path d="M57.81,38.92a5.22,5.22,0,0,0-.69,4.51,6.06,6.06,0,0,0,1.16,2,3.52,3.52,0,0,0,1.85,1.16,6.18,6.18,0,0,0,2.28.18,14.59,14.59,0,0,0,2.34-.37,31.77,31.77,0,0,0,4.59-1.55,18.22,18.22,0,0,1-4.43,2.11,9.17,9.17,0,0,1-5,.35,4.23,4.23,0,0,1-2.19-1.43,6.15,6.15,0,0,1-1.16-2.26,4.93,4.93,0,0,1,0-2.53A5.14,5.14,0,0,1,57.81,38.92Z"/><path d="M53.81,37.47A15.55,15.55,0,0,0,53,39.6a11.47,11.47,0,0,0-.53,2.21,7.1,7.1,0,0,0,.63,4.28c.17.32.39.61.59.91s.49.54.76.8a18.43,18.43,0,0,0,1.75,1.45,7.12,7.12,0,0,0,2,1.09,2.33,2.33,0,0,0,2.15-.07A2.4,2.4,0,0,1,58,50.7a7.71,7.71,0,0,1-2.17-1,13.11,13.11,0,0,1-1.9-1.4c-.3-.27-.57-.58-.86-.86s-.48-.67-.68-1a7,7,0,0,1-.53-4.74A10.89,10.89,0,0,1,53.81,37.47Z"/><path d="M65.62,62.9A22.1,22.1,0,0,1,66,57.52a16.27,16.27,0,0,1,.75-2.62,8.65,8.65,0,0,1,1.32-2.46,3.26,3.26,0,0,1,2.68-1.08,6.74,6.74,0,0,1,2.67.75,16.39,16.39,0,0,1,4.37,3.16,22.25,22.25,0,0,0-4.58-2.67A7.1,7.1,0,0,0,70.73,52a2.63,2.63,0,0,0-2.1.9,9.16,9.16,0,0,0-1.21,2.23,21.44,21.44,0,0,0-.81,2.5A41.07,41.07,0,0,0,65.62,62.9Z"/><path d="M43.28,63.26a12.72,12.72,0,0,0,2.88,2.07,4.58,4.58,0,0,0,3.22.54,12.11,12.11,0,0,0,3.16-1.44c1-.62,2-1.29,3-2a15.66,15.66,0,0,1-2.67,2.47,9.79,9.79,0,0,1-3.31,1.69,4.8,4.8,0,0,1-3.69-.76A8.39,8.39,0,0,1,43.28,63.26Z"/><path d="M46.73,66a5.61,5.61,0,0,0,1.35,1.85,2.84,2.84,0,0,0,1.94.71,11.82,11.82,0,0,0,2.23-.34,5.9,5.9,0,0,0,2.11-1,4,4,0,0,1-1.92,1.5,7.29,7.29,0,0,1-2.42.54,3.11,3.11,0,0,1-2.35-1A3.9,3.9,0,0,1,46.73,66Z"/><path d="M45.91,69.71a8.61,8.61,0,0,0,1.9.71,7.58,7.58,0,0,0,2,.1,2.19,2.19,0,0,1-1,.6,2.47,2.47,0,0,1-2.92-1.41Z"/><path d="M45.91,72.34a1.17,1.17,0,0,0,.64.23l.64.05a5.18,5.18,0,0,1,1.45.26,2.1,2.1,0,0,1-1.51.49,1.94,1.94,0,0,1-.81-.27A.77.77,0,0,1,45.91,72.34Z"/><path d="M41.74,50.91a7.06,7.06,0,0,0-.2,2.23,4.5,4.5,0,0,0,.61,2.06,4.59,4.59,0,0,0,3.52,2,10.37,10.37,0,0,0,4.27-.85A22.38,22.38,0,0,0,52,55.45c.68-.33,1.34-.71,2-1.09a16.25,16.25,0,0,1-3.83,2.54A9.29,9.29,0,0,1,45.62,58a4.87,4.87,0,0,1-4-2.5A5.33,5.33,0,0,1,41.74,50.91Z"/><path d="M87.05,36.11A4.61,4.61,0,0,0,82.52,36,15.85,15.85,0,0,1,78,38.18a9.5,9.5,0,0,1-5,.28A4.66,4.66,0,0,1,70.8,37.2,5,5,0,0,1,69.62,35a4.78,4.78,0,0,0,3.53,2.88,10.2,10.2,0,0,0,4.67-.44,19.5,19.5,0,0,0,4.43-1.94,4.43,4.43,0,0,1,2.53-.41A4.73,4.73,0,0,1,87.05,36.11Z"/><path d="M82.42,40.19a8.8,8.8,0,0,1,5.36.66A7.45,7.45,0,0,1,90,42.45a6.76,6.76,0,0,1,1.47,2.28,13.6,13.6,0,0,0-1.87-1.85,10,10,0,0,0-2.17-1.35A16.45,16.45,0,0,0,82.42,40.19Z"/><path d="M92,39.28a3.45,3.45,0,0,1,2,.2,5.39,5.39,0,0,1,1.67,1.08,6.86,6.86,0,0,1,1.2,1.55,9,9,0,0,1,.43.88c.1.31.21.61.29.93l-1.2-1.47a15.86,15.86,0,0,0-1.24-1.34A7.87,7.87,0,0,0,93.65,40,5.84,5.84,0,0,0,92,39.28Z"/></svg>