<svg id="naked_head" xmlns="http://www.w3.org/2000/svg" viewBox="0 0 162 387"><defs><style>.cls-1{fill:#ffd9c4;}.cls-2{fill:#ffbeb5;}.cls-3,.cls-7{fill:#ffa89c;}.cls-4{fill:#ff9924;}.cls-5{fill:none;}.cls-5,.cls-7{stroke:#cb8b6f;stroke-miterlimit:10;stroke-width:1.46px;}.cls-6{fill:#b3e1ff;}</style></defs><path class="cls-1" d="M99.19,59.14A19.31,19.31,0,0,0,80.37,43.88H67.47A19.33,19.33,0,0,0,48.64,59.14L38.41,145.59h72.65Z"/><ellipse class="cls-1" cx="45.79" cy="83.5" rx="6.77" ry="7.45"/><ellipse class="cls-1" cx="102.54" cy="83.48" rx="6.77" ry="7.45"/><circle class="cls-2" cx="54.44" cy="98.51" r="6.4"/><circle class="cls-2" cx="83.95" cy="98.51" r="6.4"/><path class="cls-3" d="M67.66,93a5.72,5.72,0,0,1-1.88,2.26c-1.26.92-3.25,2.83-2.12,5.18,1.84,3.84,11.66.55,8.53-9.17-2.45-7.63-4.26-8.72-4.26-8.72S69.81,88.24,67.66,93Z"/><path class="cls-4" d="M44.53,78.43s-1.77,5.32-8.24,2.39c0,0,4.43-1.91,4.36-5.59s-3.54-4.83-4.29-2-1.57,5.58-2.32,1,1.71-3.13,2-7.42S32.41,66,32.2,63.31,42.49,46.56,46.44,44.92,56,35.66,66.87,35.25s17.85-1.36,22.21,3.14,7.42,2.18,10.14,6.4,8.86,1.56,10.9,5.52-7.63,1.49.34,7.35-.27,7.08,0,11,3.75,4.08-1.9,5.24-6.75,3.61-6.75,3.61S101,66.79,97,62.63c0,0-.07,3.34-1.3,4.16s-1-4.91-3.27-4.63-.2,8.78,2.39,10.76S80.09,74.69,75,65c0,0,.27,4.42,2.79,7.22s-3.88-.62-5-5.38-8.45-.28-11.44-5.52c0,0,.13,3.13,1.49,4.22s-5.65-3.4-7.56-8.92-.81,2.72-2.58,4-1.5-3.81-3.61-1.16S53.25,64.2,53,66.17s-5.31-2.58-5.25.82.14,14.92.14,14.92A7.74,7.74,0,0,1,44.53,78.43Z"/><path class="cls-5" d="M52.79,81.3a9.62,9.62,0,0,0-.08,1.22c0,3.46,1.29,6.27,4.42,6.27,3.54,0,4.43-2.81,4.43-6.27a8,8,0,0,0-.09-1.22"/><path class="cls-5" d="M77.65,81.3a9.62,9.62,0,0,0-.08,1.22c0,3.46,1.29,6.27,4.42,6.27,3.54,0,4.43-2.81,4.43-6.27a8,8,0,0,0-.09-1.22"/><path class="cls-6" d="M64.22,100.43s-4.91,3-9.06,2.12-2.93-4.3-6.47-4.16-4.77,4-2.86,7.15S57.06,109.08,64.22,100.43Z"/><circle class="cls-7" cx="69.12" cy="110.99" r="4.63"/></svg>