<svg id="shower_header" xmlns="http://www.w3.org/2000/svg" viewBox="0 0 162 387"><defs><style>.cls-1{fill:#ffd9c4;}.cls-2{fill:#cb8b6f;}.cls-3{fill:#ffbeb5;}.cls-4{fill:#ffa89c;}.cls-5{fill:#ff9924;}.cls-6{fill:#efefef;}.cls-7{fill:none;stroke:#b3e1ff;stroke-miterlimit:10;}</style></defs><path class="cls-1" d="M99.24,59.14A19.31,19.31,0,0,0,80.42,43.88H67.51A19.32,19.32,0,0,0,48.69,59.14L38.46,145.59h72.65Z"/><ellipse class="cls-1" cx="45.84" cy="83.5" rx="6.77" ry="7.45"/><ellipse class="cls-1" cx="102.59" cy="83.48" rx="6.77" ry="7.45"/><ellipse class="cls-2" cx="57.71" cy="82.57" rx="2.91" ry="3.72"/><ellipse class="cls-2" cx="78.96" cy="82.57" rx="2.91" ry="3.72"/><circle class="cls-3" cx="54.49" cy="98.51" r="6.4"/><circle class="cls-3" cx="84" cy="98.51" r="6.4"/><path class="cls-2" d="M68.77,110.33a13.74,13.74,0,0,1-3.23-.37,1,1,0,0,1,.51-1.93c.06,0,6,1.49,9.14-2.39a1,1,0,0,1,1.55,1.26A10,10,0,0,1,68.77,110.33Z"/><path class="cls-4" d="M67.71,93a5.72,5.72,0,0,1-1.88,2.26c-1.26.92-3.25,2.83-2.13,5.18,1.85,3.84,11.67.55,8.54-9.17C69.79,83.66,68,82.57,68,82.57S69.85,88.24,67.71,93Z"/><path class="cls-5" d="M117.42,56.78s-13.41,4.7-16.57,3.13l-.55-.37-.86-7.37c0-7.26-9.36-16-16.62-16H65.25A13.42,13.42,0,0,0,59,38l-9.27-7,2.79,6.54-7.42-2.11,4.49,6-5.72-.88,6.37,6.26A14.81,14.81,0,0,0,48.44,52L46.68,76.1s7.81-11.83,8-21.3c0,0,21,22.6,42.66,17.07a38.77,38.77,0,0,0,4.25,4.3l-.77-5.43C106.5,68.48,112.15,64.13,117.42,56.78Z"/><path class="cls-6" d="M45.84,38.52s-3.27-12.94,7.36-11c0,0,4.63-6.68,12.94.27,0,0,1-4.77,5.31-2.86,0,0,3.81-6.95,11.58-1.36,0,0,5.31-4.09,6.13,4.08,0,0,1.77,0,2.59,3.54,0,0,9.53,1,9.12,12.67,0,0,1.77,4.22-4.08,6S88.61,47.92,87.12,52s-4.5,1.64-4,7S80,64.81,79.49,57.32s-6.54,2-10.9,1.9-5.45-2.72-5.45-2.72-7.22-.27-6-7.49-4.5,4.63-7.63-.14-1-6.67-1-6.67S44.48,42.74,45.84,38.52Z"/><circle class="cls-6" cx="50.02" cy="56.05" r="3.77"/><circle class="cls-6" cx="103.01" cy="52" r="2.36"/><circle class="cls-6" cx="111.82" cy="51.55" r="2.27"/><circle class="cls-7" cx="36.85" cy="53.87" r="4.68"/><circle class="cls-7" cx="127.3" cy="63.04" r="4.59"/><circle class="cls-7" cx="108.91" cy="96.23" r="7.99"/><circle class="cls-6" cx="95.79" cy="120.98" r="3.5"/><circle class="cls-7" cx="36.81" cy="118.84" r="6.54"/><circle class="cls-7" cx="38.03" cy="129.88" r="7.31"/><circle class="cls-7" cx="91.7" cy="139.96" r="7.31"/><path class="cls-6" d="M97.83,57.09A6,6,0,0,0,92.2,61a2.72,2.72,0,0,0-1.27-.32,2.82,2.82,0,1,0,1.59,5.14A6,6,0,0,0,97.1,69v3.32s-.31,2.18,1.46,2.13,1.63-1.68,1.72-3.68c0-.75.08-1.57.12-2.3a6,6,0,0,0-2.57-11.41Z"/></svg>