<svg id="casual_head" xmlns="http://www.w3.org/2000/svg" viewBox="0 0 162 387"><defs><style>.cls-1{fill:#ffd9c4;}.cls-2{fill:#cb8b6f;}.cls-3{fill:#ffbeb5;}.cls-4{fill:#ffa89c;}</style></defs><path class="cls-1" d="M99.19,59.14A19.31,19.31,0,0,0,80.37,43.88H67.47A19.33,19.33,0,0,0,48.64,59.14L38.41,145.59h72.65Z"/><ellipse class="cls-1" cx="45.79" cy="83.5" rx="6.77" ry="7.45"/><ellipse class="cls-1" cx="102.54" cy="83.48" rx="6.77" ry="7.45"/><ellipse class="cls-2" cx="57.66" cy="82.57" rx="2.91" ry="3.72"/><ellipse class="cls-2" cx="78.91" cy="82.57" rx="2.91" ry="3.72"/><circle class="cls-3" cx="54.44" cy="98.51" r="6.4"/><circle class="cls-3" cx="83.95" cy="98.51" r="6.4"/><path class="cls-2" d="M68.72,110.33a13.94,13.94,0,0,1-3.23-.37A1,1,0,1,1,66,108c.06,0,6,1.49,9.14-2.39a1,1,0,0,1,1.41-.14,1,1,0,0,1,.14,1.4A9.94,9.94,0,0,1,68.72,110.33Z"/><path class="cls-4" d="M67.66,93a5.72,5.72,0,0,1-1.88,2.26c-1.26.92-3.25,2.83-2.12,5.18,1.84,3.84,11.66.55,8.53-9.17-2.45-7.63-4.26-8.72-4.26-8.72S69.81,88.24,67.66,93Z"/><path class="cls-2" d="M46.79,79.66s.55-5.68.55-9c0,0,1.36,2.25,3.46,2.12,0,0,1.83-1.91.54-7.36,0,0,2.91,0,4.33,7.08,0,0,5.35,1.37,7.79-5.79,0,0,2.71,8,9.62,7.36A41.56,41.56,0,0,0,72.6,63s3.25,2.11,4.27,10.55c0,0,5.28.75,6.3-3.67a4.43,4.43,0,0,1,1.89,3.81s3.66-.88,3.12-5.52a4.45,4.45,0,0,1,1.15,2.59s3.23,1.46,3.37-3.58c0,0,1.51,3.13,3.68,4.35,0,0,.88-4.49,3.86-4.29a94.6,94.6,0,0,1,1.38,12.4A40.72,40.72,0,0,0,104.5,68.4c1-7.15,2.21-26.72-11.49-33.79-14.52-7.49-33.77-2.86-40.72,5.18C44.49,48.81,41.58,64.74,46.79,79.66Z"/></svg>