<svg id="Layer_7" data-name="Layer 7" xmlns="http://www.w3.org/2000/svg" viewBox="0 0 162 387"><defs><style>.cls-1{fill:#ffd9c4;}.cls-2,.cls-4{fill:#3f3f3f;}.cls-3{fill:#fff;}.cls-4,.cls-5,.cls-6{stroke:#1d1d1b;}.cls-4,.cls-5,.cls-6,.cls-7{stroke-linecap:round;stroke-linejoin:round;}.cls-5{fill:#365566;}.cls-6,.cls-7{fill:none;}.cls-7{stroke:#7997a5;opacity:0.51;}</style></defs><path class="cls-1" d="M131.78,177.29A99.41,99.41,0,0,0,111.3,148l-.19-2.4H38.45l-2.17,21.72C26.74,182.41,10.12,218.87,31,267.88a7.5,7.5,0,0,0,10,3.9,7.71,7.71,0,0,0,3.7-10.06c-.82-1.93-1.4-4.43-2.09-6.35-8-8.08-13.11-18.63-13.11-30.91,0-.43.22-1.06.23-1.49l89.24.2a86.88,86.88,0,0,0-.52-10l-5-38.37c10.26,16.66,20,45.62,4.72,86.44a7.66,7.66,0,0,0,3.5,9.53,7.49,7.49,0,0,0,10.46-4C147.34,226.19,140.34,195.72,131.78,177.29Z"/><path class="cls-2" d="M22.53,253C8.71,198.89,37.24,148,38.46,145.89l15.64,8.92-7.82-4.46,7.82,4.45c-.26.46-26.11,46.82-14.13,93.76Z"/><path class="cls-2" d="M38.45,145.6h72.66s8.7,68,7.81,77.58l-88.21-.08Z"/><path class="cls-2" d="M137.87,253.26l-17.36-4.76c.07-.25,7-26.06,2.33-48.07-4.19-19.82-25-42.05-25.17-42.27l13.09-12.36c1,1,24.45,26.1,29.69,50.91C146,223.06,138.21,252,137.87,253.26Z"/><polygon class="cls-3" points="58.27 145.81 91.78 145.72 75.07 173.32 58.27 145.81"/><path class="cls-4" d="M80.54,182.63,94.16,173a.48.48,0,0,0,.19-.53l-2.68-9.72a.49.49,0,0,1,.15-.5l18.65-15.92a.49.49,0,0,1,.8.41c-1.5,23.89,4,35.46,4,35.46s4,33.13,3.62,40.95c0,0-.9,9.82-15.06,8.36a144.17,144.17,0,0,0-28,.21"/><polygon class="cls-5" points="70.71 149.17 73.61 152.71 76.61 152.71 78.97 149.35 74.78 145.63 70.71 149.17"/><polygon class="cls-5" points="73.61 152.71 71.48 167.56 74.92 173.45 78.61 167.06 76.61 152.71 73.61 152.71"/><path class="cls-6" d="M74.92,173.45l16.72-27.82-8.49,6.63-8.37-6.63-8.25,6.63-8.37-6.63L88.6,196.25,55.36,172.82l2.86-10.35L38.45,145.6s-2.7,18-4,30.54c0,0-5.33,36.48-4.79,46.83"/><line class="cls-7" x1="73.43" y1="154.93" x2="77.47" y2="158.98"/><path class="cls-4" d="M94.91,211.22v1.37c0,3.45.45,6.25,6.26,6.25h3.45c7.14,0,6.95-3.11,6.95-7v-.67Z"/><path class="cls-4" d="M112,207.27a2.17,2.17,0,0,0-2.17-2.16H96.27a1.81,1.81,0,0,0-1.81,1.81v4.73H112Z"/><circle class="cls-4" cx="103.24" cy="209.1" r="1.26"/><line class="cls-7" x1="72.25" y1="148.44" x2="76.29" y2="152.48"/><line class="cls-7" x1="73.61" y1="146.9" x2="77.66" y2="150.94"/><line class="cls-7" x1="74.16" y1="153.03" x2="77.02" y2="155.89"/><line class="cls-7" x1="73.39" y1="157.75" x2="77.43" y2="161.79"/><line class="cls-7" x1="72.93" y1="160.16" x2="78.36" y2="165.58"/><line class="cls-7" x1="72.48" y1="162.56" x2="78" y2="168.08"/><line class="cls-7" x1="72.03" y1="164.97" x2="76.86" y2="169.8"/><line class="cls-7" x1="71.57" y1="167.38" x2="75.61" y2="171.42"/><polygon class="cls-6" points="73.61 152.71 71.48 167.56 74.92 173.45 78.61 167.06 76.61 152.71 73.61 152.71"/><polygon class="cls-6" points="70.71 149.17 73.61 152.71 76.61 152.71 78.97 149.35 74.78 145.63 70.71 149.17"/><path class="cls-4" d="M88.6,196.25v26.57s-.34,8.37-12.74,8.92S32,234.33,30,226.43"/><circle class="cls-6" cx="81.38" cy="201.79" r="3.77"/><circle class="cls-6" cx="81.38" cy="201.79" r="2.06"/><circle class="cls-6" cx="81.38" cy="216.26" r="3.77"/><circle class="cls-6" cx="81.38" cy="216.26" r="2.06"/><path class="cls-4" d="M44.06,211.22v1.37c0,3.45.45,6.25,6.25,6.25h3.46c7.13,0,6.95-3.11,6.95-7v-.67Z"/><path class="cls-4" d="M61.17,207.27A2.16,2.16,0,0,0,59,205.11H45.41a1.81,1.81,0,0,0-1.81,1.81v4.73H61.17Z"/><circle class="cls-4" cx="52.39" cy="209.1" r="1.26"/></svg>