<svg id="shower_top" xmlns="http://www.w3.org/2000/svg" viewBox="0 0 162 387"><defs><style>.cls-1{fill:#fedc45;}.cls-2{fill:#ffd9c4;}.cls-3{fill:#ffbeb5;}.cls-4{fill:none;stroke:#b3e1ff;stroke-miterlimit:10;}.cls-5{fill:#efefef;}</style></defs><path class="cls-1" d="M142.56,271.44c-.08,8.44-4.9,12.4-13.12,10.84-4.37-.84-8.76-1.56-13.13-2.39-7.21-1.37-10.26-5.52-9-12.18,1.31-7,5.16-9.72,12.43-8.48,5.2.88,10.38,1.87,15.52,3C140.19,263.35,142.61,266.54,142.56,271.44Z"/><path class="cls-2" d="M131.78,177.29A99.41,99.41,0,0,0,111.3,148l-.19-2.4H38.45l-2.17,21.72C26.74,182.41,10.12,218.87,31,267.88a7.5,7.5,0,0,0,10,3.9,7.71,7.71,0,0,0,3.7-10.06c-.82-1.93-1.4-4.43-2.09-6.35-8-8.08-13.11-18.63-13.11-30.91,0-.43,0-.86,0-1.29h89.43a86.88,86.88,0,0,0-.52-10l-5-38.37c10.26,16.66,20,45.62,4.72,86.44a7.66,7.66,0,0,0,3.5,9.53,7.49,7.49,0,0,0,10.46-4C147.34,226.19,140.34,195.72,131.78,177.29Z"/><circle class="cls-3" cx="48.01" cy="173.41" r="2.86"/><circle class="cls-3" cx="91.73" cy="173.41" r="2.86"/><circle class="cls-4" cx="66.09" cy="173.47" r="4.31"/><circle class="cls-5" cx="44.3" cy="189.45" r="4.13"/><circle class="cls-4" cx="98.78" cy="208.88" r="7.31"/><circle class="cls-5" cx="107.59" cy="196.9" r="3.41"/></svg>