<svg id="Layer_2" data-name="Layer 2" xmlns="http://www.w3.org/2000/svg" viewBox="0 0 162 387"><defs><style>.cls-1{fill:#ffd9c4;}.cls-2{fill:#ececec;}.cls-3{fill:#ffbeb5;}</style></defs><path class="cls-1" d="M118.06,234.25l.19-1.31c.1-.69.18-1.38.26-2.08a47.58,47.58,0,0,1-1.53,7.36C117.37,236.94,117.73,235.63,118.06,234.25Z"/><path class="cls-2" d="M118.89,226.37c-.08,1.5-.2,3-.38,4.49C118.71,229.38,118.83,227.88,118.89,226.37Z"/><path class="cls-2" d="M117,238.22l-.18.57Z"/><path class="cls-1" d="M131.78,177.29A99.41,99.41,0,0,0,111.3,148l-.19-2.4H38.45l-2.17,21.72C26.74,182.41,10.12,218.87,31,267.88a7.5,7.5,0,0,0,10,3.9,7.71,7.71,0,0,0,3.7-10.06c-.82-1.93-1.4-4.43-2.09-6.35-8-8.08-13.11-18.63-13.11-30.91,0-.43,0-.86,0-1.29h89.43a86.88,86.88,0,0,0-.52-10l-5-38.37c10.26,16.66,20,45.62,4.72,86.44a7.66,7.66,0,0,0,3.5,9.53,7.49,7.49,0,0,0,10.46-4C147.34,226.19,140.34,195.72,131.78,177.29Z"/><circle class="cls-3" cx="48.01" cy="173.41" r="2.86"/><circle class="cls-3" cx="91.73" cy="173.41" r="2.86"/></svg>