<svg xmlns="http://www.w3.org/2000/svg" viewBox="0 0 162 387"><defs><style>.cls-1{fill:#ffd9c4;}.cls-2{fill:#cb8b6f;}.cls-3{fill:#ffbeb5;}.cls-4{fill:#ffa89c;}.cls-5{fill:#a5a5a5;}.cls-6{fill:#1d1d1b;}.cls-7{fill:#5989aa;}.cls-8{fill:#ededed;}</style></defs><g id="casual_head"><path class="cls-1" d="M99.19,59.14A19.31,19.31,0,0,0,80.37,43.88H67.47A19.33,19.33,0,0,0,48.64,59.14L38.41,145.59h72.65Z"/><ellipse class="cls-1" cx="45.79" cy="83.5" rx="6.77" ry="7.45"/><ellipse class="cls-1" cx="102.54" cy="83.48" rx="6.77" ry="7.45"/><ellipse class="cls-2" cx="57.66" cy="82.57" rx="2.91" ry="3.72"/><ellipse class="cls-2" cx="78.91" cy="82.57" rx="2.91" ry="3.72"/><circle class="cls-3" cx="54.44" cy="98.51" r="6.4"/><circle class="cls-3" cx="83.95" cy="98.51" r="6.4"/><path class="cls-2" d="M68.72,110.33a13.94,13.94,0,0,1-3.23-.37A1,1,0,1,1,66,108c.06,0,6,1.49,9.14-2.39a1,1,0,0,1,1.41-.14,1,1,0,0,1,.14,1.4A9.94,9.94,0,0,1,68.72,110.33Z"/><path class="cls-4" d="M67.66,93a5.72,5.72,0,0,1-1.88,2.26c-1.26.92-3.25,2.83-2.12,5.18,1.84,3.84,11.66.55,8.53-9.17-2.45-7.63-4.26-8.72-4.26-8.72S69.81,88.24,67.66,93Z"/><path class="cls-2" d="M46.79,79.66s.55-5.68.55-9c0,0,1.36,2.25,3.46,2.12,0,0,1.83-1.91.54-7.36,0,0,2.91,0,4.33,7.08,0,0,5.35,1.37,7.79-5.79,0,0,2.71,8,9.62,7.36A41.56,41.56,0,0,0,72.6,63s3.25,2.11,4.27,10.55c0,0,5.28.75,6.3-3.67a4.43,4.43,0,0,1,1.89,3.81s3.66-.88,3.12-5.52a4.45,4.45,0,0,1,1.15,2.59s3.23,1.46,3.37-3.58c0,0,1.51,3.13,3.68,4.35,0,0,.88-4.49,3.86-4.29a94.6,94.6,0,0,1,1.38,12.4A40.72,40.72,0,0,0,104.5,68.4c1-7.15,2.21-26.72-11.49-33.79-14.52-7.49-33.77-2.86-40.72,5.18C44.49,48.81,41.58,64.74,46.79,79.66Z"/></g><g id="casual_top"><path class="cls-1" d="M131.78,177.29A99.41,99.41,0,0,0,111.3,148l-.19-2.4H38.45l-2.17,21.72C26.74,182.41,10.12,218.87,31,267.88a7.5,7.5,0,0,0,10,3.9,7.71,7.71,0,0,0,3.7-10.06c-.82-1.93-1.4-4.43-2.09-6.35-8-8.08-13.11-18.63-13.11-30.91,0-.43,0-.86,0-1.29h89.43a86.88,86.88,0,0,0-.52-10l-5-38.37c10.26,16.66,20,45.62,4.72,86.44a7.66,7.66,0,0,0,3.5,9.53,7.49,7.49,0,0,0,10.46-4C147.34,226.19,140.34,195.72,131.78,177.29Z"/><circle class="cls-3" cx="48.01" cy="173.41" r="2.86"/><circle class="cls-3" cx="91.73" cy="173.41" r="2.86"/><path class="cls-5" d="M140.69,195.49c-3.71-18.42-17.37-34.32-24.49-41.58,2-.57,4.89-2.43,1-8.37,0,0,2.18-6.63-7.26-9.17,0,0,3.36,7.17-6.18,9.54s-28.42,9-28.42,9h-1s-18.89-6.63-28.42-9-6.18-9.54-6.18-9.54c-9.44,2.54-7.26,9.17-7.26,9.17-4.37,6.62-.22,8.17,1.6,8.53-3.45,6.34-13.49,26.64-15.59,51.23C15.92,235.08,21,252.7,21,252.7l17.62-4s-3.45-16.53-2.72-25.43h82.64s-.91-32.15-3.82-41.23c0,0,9.81,10.17,9.45,37s-3.64,29.24-3.64,29.24l17.8,4.72S145.78,220.73,140.69,195.49Z"/><path class="cls-6" d="M32.42,145.47a9.4,9.4,0,0,0,1.81,1.91,15.67,15.67,0,0,0,2.11,1.52A21.9,21.9,0,0,0,41.08,151a40.82,40.82,0,0,0,5.07,1.26l2.61.4c.88.11,1.76.19,2.64.34-.88.08-1.77.1-2.67.15s-1.79-.06-2.68-.12A24.75,24.75,0,0,1,40.76,152a17,17,0,0,1-4.85-2.4A10.18,10.18,0,0,1,32.42,145.47Z"/><path class="cls-6" d="M33.15,153.76c1.71.15,3.42.3,5.14.39s3.42.23,5.14.31c3.43.15,6.85.29,10.28.36s6.86.1,10.29.11l10.31,0c-1.71.19-3.42.35-5.14.5s-3.43.23-5.15.3c-3.44.17-6.89.16-10.33.12s-6.89-.26-10.32-.6A90.44,90.44,0,0,1,33.15,153.76Z"/><path class="cls-6" d="M64.32,152.62a2.33,2.33,0,0,1,1.32.93,6.22,6.22,0,0,1,.8,1.45,13.08,13.08,0,0,1,.7,3.2,46.42,46.42,0,0,1,0,6.46c-.1,2.13-.17,4.26-.23,6.38,0,1.07,0,2.13,0,3.19,0,.53,0,1.06.11,1.58a6.57,6.57,0,0,0,.16.77,1,1,0,0,0,.4.65c-.52-.24-.65-.87-.82-1.36a14.65,14.65,0,0,1-.33-1.6c-.15-1.07-.23-2.14-.3-3.22-.12-2.14-.07-4.29,0-6.43s.3-4.27.23-6.37a12.91,12.91,0,0,0-.39-3.1A3.65,3.65,0,0,0,64.32,152.62Z"/><path class="cls-6" d="M117.17,145.38a10.15,10.15,0,0,1-3.48,4.08,17.08,17.08,0,0,1-4.86,2.4,24.53,24.53,0,0,1-5.28,1.09c-.89.06-1.79.1-2.68.12s-1.79-.07-2.68-.15c.89-.15,1.77-.23,2.65-.34l2.61-.4a39.56,39.56,0,0,0,5.07-1.27,21.6,21.6,0,0,0,4.74-2.1,15.67,15.67,0,0,0,2.11-1.52A9.34,9.34,0,0,0,117.17,145.38Z"/><path class="cls-6" d="M116.11,154A87.45,87.45,0,0,1,106,155.45c-3.37.32-6.76.47-10.15.55s-6.77,0-10.16-.14c-1.69-.07-3.38-.2-5.07-.3s-3.37-.31-5.06-.51l10.15,0c3.38,0,6.75,0,10.12-.09s6.75-.17,10.12-.31c1.69-.07,3.37-.16,5.06-.28S114.42,154.18,116.11,154Z"/><path class="cls-6" d="M85.48,152.62a3.6,3.6,0,0,0-1.65,2.53,12.92,12.92,0,0,0-.4,3.1c-.07,2.1.15,4.21.23,6.37s.12,4.29,0,6.43c-.07,1.08-.15,2.15-.29,3.22-.09.54-.2,1.07-.34,1.6s-.3,1.12-.82,1.36a1,1,0,0,0,.4-.65,6.57,6.57,0,0,0,.16-.77,13.82,13.82,0,0,0,.11-1.58c.05-1.06,0-2.12,0-3.19q-.09-3.18-.22-6.38a44.92,44.92,0,0,1,0-6.46,13.56,13.56,0,0,1,.7-3.2,6.26,6.26,0,0,1,.81-1.45A2.28,2.28,0,0,1,85.48,152.62Z"/><path class="cls-6" d="M36.58,214.92a42.37,42.37,0,0,0,3.81-3,33.36,33.36,0,0,0,3.41-3.42,23.94,23.94,0,0,0,2.76-3.9,13.6,13.6,0,0,0,1.53-4.45l0-.3h.3q6.48-.09,13-.11l13,0,13,0q6.5,0,13,.1h.25l.08.23a36.41,36.41,0,0,0,1.91,4.52,34.5,34.5,0,0,0,2.51,4.22,23.3,23.3,0,0,0,3.23,3.71,15.63,15.63,0,0,0,4.14,2.65,14.94,14.94,0,0,1-4.29-2.47,24.06,24.06,0,0,1-3.43-3.63,31.29,31.29,0,0,1-2.67-4.22,34.71,34.71,0,0,1-2.06-4.56l.33.24q-6.49.09-13,.1l-13,.05-13-.05q-6.48,0-13-.11l.34-.29a14.5,14.5,0,0,1-1.71,4.63,22.16,22.16,0,0,1-3,3.91,33.91,33.91,0,0,1-3.57,3.32A35,35,0,0,1,36.58,214.92Z"/></g><g id="casual_bottom"><path class="cls-7" d="M118.93,223.17H29.5c0,.43,0,.86,0,1.29,0,12.28,5.1,22.83,13.11,30.91,3,3,6.18,6.13,9.87,8.19.75.41,1.5.81,2.27,1.19-2.19,13.75-5.5,41.38-1.19,65.55l-.21,0,15.26-1.18c-4.17-21.43-1.45-46.76.59-60.21l.55,0c1,.07,2.06.13,3.13.13,0,0,.56.06,1.55.09a45.45,45.45,0,0,0,6.58-.32c-2,15.36-3.69,39,.5,59.91a6.9,6.9,0,0,0,.35,1.2l15.44-.28c-.21-.91-.48-1.88-.81-2.93,0,0-.2-.61-.27-.93-4.43-22.13-1.4-48.6.67-61.83,1.07-.58,2.15-1.21,3.21-1.92a39.08,39.08,0,0,0,4.54-3.52c.81-.75,1.6-1.55,2.35-2.38a44,44,0,0,0,7-10.17v0c.32-.63.61-1.28.9-1.93.13-.32.27-.63.41-1s.32-.82.48-1.23.36-.93.52-1.41.39-1.13.56-1.7l.18-.57a48.81,48.81,0,0,0,1.54-7.36c.17-1.49.29-3,.37-4.49,0-.64.06-1.27.06-1.91C119,224,118.94,223.6,118.93,223.17Z"/><path class="cls-8" d="M81.86,330.11c-2.65.51-8.82,0-12.08,5a27.15,27.15,0,0,0-1.12-5.41l-.09-.51-15.26,1.18c-2.73.61-7.16,1.88-10.2,4.13a3.8,3.8,0,0,0,2.3,6.81l22.26.22H91.46s8.92,1.59,5.8-11.78L81.82,330A.76.76,0,0,0,81.86,330.11Z"/><path class="cls-7" d="M46.2,231.67s2.32,11.44-5.72,13.62"/><path class="cls-6" d="M46.2,231.67a14.28,14.28,0,0,1,.69,4.06,13.06,13.06,0,0,1-.51,4.15,8.64,8.64,0,0,1-2.15,3.65,7,7,0,0,1-3.75,1.76,9.71,9.71,0,0,0,3.19-2.3,9.82,9.82,0,0,0,1.75-3.4,17.82,17.82,0,0,0,.69-3.88A38.61,38.61,0,0,0,46.2,231.67Z"/><path class="cls-7" d="M105.59,231.67s-2.31,11.44,5.72,13.62"/><path class="cls-6" d="M105.59,231.67a38.61,38.61,0,0,0,.09,4,17.82,17.82,0,0,0,.69,3.88,10,10,0,0,0,1.75,3.4,9.71,9.71,0,0,0,3.19,2.3,7,7,0,0,1-3.75-1.76,8.74,8.74,0,0,1-2.15-3.65,12.77,12.77,0,0,1-.5-4.15A13.93,13.93,0,0,1,105.59,231.67Z"/></g></svg>