<svg xmlns="http://www.w3.org/2000/svg" viewBox="0 0 162 387"><defs><style>.cls-1{fill:#ffd9c4;}.cls-2{fill:#ffbeb5;}.cls-3,.cls-7{fill:#ffa89c;}.cls-4{fill:#ff9924;}.cls-5{fill:none;}.cls-5,.cls-7{stroke:#cb8b6f;stroke-miterlimit:10;stroke-width:1.46px;}.cls-6{fill:#b3e1ff;}.cls-8{fill:#ececec;}.cls-9{fill:#b5b5b5;}</style></defs><g id="naked_head"><path class="cls-1" d="M99.19,59.14A19.31,19.31,0,0,0,80.37,43.88H67.47A19.33,19.33,0,0,0,48.64,59.14L38.41,145.59h72.65Z"/><ellipse class="cls-1" cx="45.79" cy="83.5" rx="6.77" ry="7.45"/><ellipse class="cls-1" cx="102.54" cy="83.48" rx="6.77" ry="7.45"/><circle class="cls-2" cx="54.44" cy="98.51" r="6.4"/><circle class="cls-2" cx="83.95" cy="98.51" r="6.4"/><path class="cls-3" d="M67.66,93a5.72,5.72,0,0,1-1.88,2.26c-1.26.92-3.25,2.83-2.12,5.18,1.84,3.84,11.66.55,8.53-9.17-2.45-7.63-4.26-8.72-4.26-8.72S69.81,88.24,67.66,93Z"/><path class="cls-4" d="M44.53,78.43s-1.77,5.32-8.24,2.39c0,0,4.43-1.91,4.36-5.59s-3.54-4.83-4.29-2-1.57,5.58-2.32,1,1.71-3.13,2-7.42S32.41,66,32.2,63.31,42.49,46.56,46.44,44.92,56,35.66,66.87,35.25s17.85-1.36,22.21,3.14,7.42,2.18,10.14,6.4,8.86,1.56,10.9,5.52-7.63,1.49.34,7.35-.27,7.08,0,11,3.75,4.08-1.9,5.24-6.75,3.61-6.75,3.61S101,66.79,97,62.63c0,0-.07,3.34-1.3,4.16s-1-4.91-3.27-4.63-.2,8.78,2.39,10.76S80.09,74.69,75,65c0,0,.27,4.42,2.79,7.22s-3.88-.62-5-5.38-8.45-.28-11.44-5.52c0,0,.13,3.13,1.49,4.22s-5.65-3.4-7.56-8.92-.81,2.72-2.58,4-1.5-3.81-3.61-1.16S53.25,64.2,53,66.17s-5.31-2.58-5.25.82.14,14.92.14,14.92A7.74,7.74,0,0,1,44.53,78.43Z"/><path class="cls-5" d="M52.79,81.3a9.62,9.62,0,0,0-.08,1.22c0,3.46,1.29,6.27,4.42,6.27,3.54,0,4.43-2.81,4.43-6.27a8,8,0,0,0-.09-1.22"/><path class="cls-5" d="M77.65,81.3a9.62,9.62,0,0,0-.08,1.22c0,3.46,1.29,6.27,4.42,6.27,3.54,0,4.43-2.81,4.43-6.27a8,8,0,0,0-.09-1.22"/><path class="cls-6" d="M64.22,100.43s-4.91,3-9.06,2.12-2.93-4.3-6.47-4.16-4.77,4-2.86,7.15S57.06,109.08,64.22,100.43Z"/><circle class="cls-7" cx="69.12" cy="110.99" r="4.63"/></g><g id="naked_top"><path class="cls-1" d="M118.06,234.25l.19-1.31c.1-.69.18-1.38.26-2.08a47.58,47.58,0,0,1-1.53,7.36C117.37,236.94,117.73,235.63,118.06,234.25Z"/><path class="cls-8" d="M118.89,226.37c-.08,1.5-.2,3-.38,4.49C118.71,229.38,118.83,227.88,118.89,226.37Z"/><path class="cls-8" d="M117,238.22l-.18.57Z"/><path class="cls-1" d="M131.78,177.29A99.41,99.41,0,0,0,111.3,148l-.19-2.4H38.45l-2.17,21.72C26.74,182.41,10.12,218.87,31,267.88a7.5,7.5,0,0,0,10,3.9,7.71,7.71,0,0,0,3.7-10.06c-.82-1.93-1.4-4.43-2.09-6.35-8-8.08-13.11-18.63-13.11-30.91,0-.43,0-.86,0-1.29h89.43a86.88,86.88,0,0,0-.52-10l-5-38.37c10.26,16.66,20,45.62,4.72,86.44a7.66,7.66,0,0,0,3.5,9.53,7.49,7.49,0,0,0,10.46-4C147.34,226.19,140.34,195.72,131.78,177.29Z"/><circle class="cls-2" cx="48.01" cy="173.41" r="2.86"/><circle class="cls-2" cx="91.73" cy="173.41" r="2.86"/></g><g id="naked_bottom"><path class="cls-1" d="M116.8,238.79c-.18.57-.36,1.14-.56,1.7C116.44,239.94,116.62,239.37,116.8,238.79Z"/><path class="cls-1" d="M114.82,244.09c-.28.65-.57,1.3-.89,1.93C114.24,245.39,114.54,244.75,114.82,244.09Z"/><path class="cls-1" d="M115.72,241.9c-.16.41-.31.82-.48,1.23C115.4,242.73,115.56,242.31,115.72,241.9Z"/><path class="cls-1" d="M107,256.25a41.87,41.87,0,0,0,7-10.21,44.34,44.34,0,0,1-7,10.17Z"/><path class="cls-1" d="M118.06,234.25l.19-1.31c.1-.69.18-1.38.26-2.08a47.58,47.58,0,0,1-1.53,7.36C117.37,236.94,117.73,235.63,118.06,234.25Z"/><path class="cls-8" d="M113.93,246v0Z"/><path class="cls-8" d="M115.24,243.13c-.14.33-.28.64-.42,1Z"/><path class="cls-8" d="M116.24,240.49c-.17.48-.34.95-.52,1.41C115.9,241.43,116.08,241,116.24,240.49Z"/><path class="cls-8" d="M118.89,226.37c-.08,1.5-.2,3-.38,4.49C118.71,229.38,118.83,227.88,118.89,226.37Z"/><path class="cls-8" d="M117,238.22l-.18.57Z"/><path class="cls-9" d="M104.59,258.59c.8-.72,1.59-1.51,2.37-2.34l0,0C106.18,257,105.4,257.84,104.59,258.59Z"/><path class="cls-9" d="M100.13,262.18a39.36,39.36,0,0,0,4.46-3.59,39.08,39.08,0,0,1-4.54,3.52Z"/><path class="cls-9" d="M74.38,269.21c-1,0-1.55-.09-1.55-.09-1.07,0-2.11-.06-3.13-.13,1.48.14,3,.22,4.5.22Z"/><path class="cls-1" d="M118.92,223.17H29.49c0,.43,0,.86,0,1.29,0,12.28,5.1,22.83,13.11,30.91,2.95,3,6.18,6.13,9.87,8.19.75.41,1.5.81,2.27,1.19-2.19,13.75-5.5,41.38-1.19,65.55-4.66,1-14.84,4-13.64,10.93l27.79.27H91.45s10.17,1.81,5-14.71l-.15,0a7.87,7.87,0,0,0-.12-1c-4.43-22.13-1.4-48.6.67-61.83,1.07-.58,2.15-1.21,3.21-1.92a39.08,39.08,0,0,0,4.54-3.52c.81-.75,1.59-1.55,2.35-2.38a44.34,44.34,0,0,0,7-10.17v0c.32-.63.61-1.28.89-1.93.14-.32.28-.63.42-1s.32-.82.48-1.23.35-.93.52-1.41.38-1.13.56-1.7l.18-.57a47.58,47.58,0,0,0,1.53-7.36c.18-1.49.3-3,.38-4.49,0-.64.06-1.27.06-1.91C119,224,118.93,223.6,118.92,223.17ZM69.77,335.08a27.15,27.15,0,0,0-1.12-5.41c-4.3-21.53-1.56-47.16.5-60.72l.55,0c1,.07,2.06.13,3.13.13,0,0,.56.06,1.55.09a45.45,45.45,0,0,0,6.58-.32c-2,15.36-3.69,39,.5,59.91a7.09,7.09,0,0,0,.39,1.31C79.2,330.62,73.22,332.07,69.77,335.08Z"/><circle class="cls-3" cx="69.66" cy="234.03" r="2.02"/></g></svg>