<svg xmlns="http://www.w3.org/2000/svg" xmlns:xlink="http://www.w3.org/1999/xlink" viewBox="0 0 162 387"><defs><style>.cls-1,.cls-12,.cls-13,.cls-14,.cls-15{fill:none;}.cls-2{fill:#ffd9c4;}.cls-3{fill:#cb8b6f;}.cls-4{fill:#ffbeb5;}.cls-5{fill:#ffa89c;}.cls-6{fill:#ff9924;}.cls-7{fill:#ececec;}.cls-8{fill:#b5b5b5;}.cls-9{clip-path:url(#clip-path);}.cls-10{fill:#f2f2f2;}.cls-11{fill:#b3e1ff;}.cls-12{stroke:#80ceff;stroke-miterlimit:10;stroke-width:0.75px;}.cls-12,.cls-13,.cls-14,.cls-15{stroke-linecap:round;}.cls-13,.cls-14,.cls-15{stroke:#b5b5b5;stroke-linejoin:round;}.cls-14{stroke-dasharray:1.98 1.98;}.cls-15{stroke-dasharray:2;}</style><clipPath id="clip-path"><path class="cls-1" d="M38.42,145.6h72.65l.18,2.45s-5-.14-6.4,8.72,5.56,19.32,9.23,23.55l5.62,43.33-89.36-6.13Z"/></clipPath></defs><g id="nomal_head"><path class="cls-2" d="M99.24,59.14A19.31,19.31,0,0,0,80.42,43.88H67.51A19.32,19.32,0,0,0,48.69,59.14L38.46,145.59h72.65Z"/><ellipse class="cls-2" cx="45.84" cy="83.5" rx="6.77" ry="7.45"/><ellipse class="cls-2" cx="102.59" cy="83.48" rx="6.77" ry="7.45"/><ellipse class="cls-3" cx="57.71" cy="82.57" rx="2.91" ry="3.72"/><ellipse class="cls-3" cx="78.96" cy="82.57" rx="2.91" ry="3.72"/><circle class="cls-4" cx="54.49" cy="98.51" r="6.4"/><circle class="cls-4" cx="84" cy="98.51" r="6.4"/><path class="cls-3" d="M68.77,110.33a13.74,13.74,0,0,1-3.23-.37,1,1,0,0,1,.51-1.93c.06,0,6,1.49,9.14-2.39a1,1,0,0,1,1.55,1.26A10,10,0,0,1,68.77,110.33Z"/><path class="cls-5" d="M67.71,93a5.72,5.72,0,0,1-1.88,2.26c-1.26.92-3.25,2.83-2.13,5.18,1.85,3.84,11.67.55,8.54-9.17C69.79,83.66,68,82.57,68,82.57S69.85,88.24,67.71,93Z"/><path class="cls-6" d="M117.42,56.78s-13.41,4.7-16.57,3.13l-.55-.37-.86-7.37c0-7.26-9.36-16-16.62-16H65.25A13.42,13.42,0,0,0,59,38l-9.27-7,2.79,6.54-7.42-2.11,4.49,6-5.72-.88,6.37,6.26A14.81,14.81,0,0,0,48.44,52L46.68,76.1s7.81-11.83,8-21.3c0,0,21,22.6,42.66,17.07a38.77,38.77,0,0,0,4.25,4.3l-.77-5.43C106.5,68.48,112.15,64.13,117.42,56.78Z"/><path class="cls-2" d="M116.8,238.79c-.18.57-.36,1.14-.56,1.7C116.44,239.94,116.62,239.37,116.8,238.79Z"/><path class="cls-2" d="M114.82,244.09c-.28.65-.57,1.3-.89,1.93C114.24,245.39,114.54,244.75,114.82,244.09Z"/><path class="cls-2" d="M115.72,241.9c-.16.41-.31.82-.48,1.23C115.4,242.73,115.56,242.31,115.72,241.9Z"/><path class="cls-2" d="M107,256.25a41.87,41.87,0,0,0,7-10.21,44.34,44.34,0,0,1-7,10.17Z"/><path class="cls-2" d="M118.06,234.25l.19-1.31c.1-.69.18-1.38.26-2.08a47.58,47.58,0,0,1-1.53,7.36C117.37,236.94,117.73,235.63,118.06,234.25Z"/><path class="cls-7" d="M113.93,246v0Z"/><path class="cls-7" d="M115.24,243.13c-.14.33-.28.64-.42,1Z"/><path class="cls-7" d="M116.24,240.49c-.17.48-.34.95-.52,1.41C115.9,241.43,116.08,241,116.24,240.49Z"/><path class="cls-7" d="M118.89,226.37c-.08,1.5-.2,3-.38,4.49C118.71,229.38,118.83,227.88,118.89,226.37Z"/><path class="cls-7" d="M117,238.22l-.18.57Z"/><path class="cls-8" d="M104.59,258.59c.8-.72,1.59-1.51,2.37-2.34l0,0C106.18,257,105.4,257.84,104.59,258.59Z"/><path class="cls-8" d="M100.13,262.18a39.36,39.36,0,0,0,4.46-3.59,39.08,39.08,0,0,1-4.54,3.52Z"/><path class="cls-8" d="M74.38,269.21c-1,0-1.55-.09-1.55-.09-1.07,0-2.11-.06-3.13-.13,1.48.14,3,.22,4.5.22Z"/></g><g id="nomal_top"><path class="cls-2" d="M131.78,177.29A99.41,99.41,0,0,0,111.3,148l-.19-2.4H38.45l-2.17,21.72C26.74,182.41,10.12,218.87,31,267.88a7.5,7.5,0,0,0,10,3.9,7.71,7.71,0,0,0,3.7-10.06c-.82-1.93-1.4-4.43-2.09-6.35-8-8.08-13.11-18.63-13.11-30.91,0-.43,0-.86,0-1.29h89.43a86.88,86.88,0,0,0-.52-10l-5-38.37c10.26,16.66,20,45.62,4.72,86.44a7.66,7.66,0,0,0,3.5,9.53,7.49,7.49,0,0,0,10.46-4C147.34,226.19,140.34,195.72,131.78,177.29Z"/><circle class="cls-4" cx="48.01" cy="173.41" r="2.86"/><circle class="cls-4" cx="91.73" cy="173.41" r="2.86"/><g class="cls-9"><path class="cls-2" d="M99.2,59.14A19.31,19.31,0,0,0,80.38,43.89H67.48A19.31,19.31,0,0,0,48.66,59.14L38.42,145.6h72.65Z"/><path class="cls-10" d="M38.42,145.6h72.65l.18,2.45s-5-.14-6.4,8.72,6.5,13.66,10.18,17.88l4.67,49-89.36-6.13Z"/><path d="M54.49,156.76a.86.86,0,0,1-.65-.78,2.74,2.74,0,0,0-2.09-2.27,2.83,2.83,0,0,0-3,.94,1.35,1.35,0,0,1-.81.39,2.08,2.08,0,0,0-1.9,1.59,1.17,1.17,0,0,1-.55.65,2,2,0,0,0-1.21,2.22,1.94,1.94,0,0,0,2,1.59h3.64v0c1.27,0,2.54,0,3.8,0a2.23,2.23,0,0,0,2.19-1.86A2.19,2.19,0,0,0,54.49,156.76Zm-.74,3.79c-1.59,0-3.19,0-4.78,0-.86,0-1.72,0-2.58,0a1.47,1.47,0,0,1-1.62-1.43c0-.8.56-1.35,1.52-1.46l.28,0c-.12-1.61.47-2.15,2.13-2,.94-1.34,1.83-1.77,2.94-1.43s1.69,1.15,1.74,2.83l.56.09a1.72,1.72,0,0,1,1.47,1.75A1.68,1.68,0,0,1,53.75,160.55Z"/><path class="cls-11" d="M53.94,157.15l-.56-.09c-.05-1.68-.55-2.46-1.74-2.83s-2,.09-2.94,1.43c-1.66-.17-2.25.37-2.13,2l-.28,0c-1,.11-1.53.66-1.52,1.46a1.47,1.47,0,0,0,1.62,1.43c.86,0,1.72,0,2.58,0,1.59,0,3.19,0,4.78,0a1.68,1.68,0,0,0,1.66-1.65A1.72,1.72,0,0,0,53.94,157.15Z"/><path d="M43.73,146.41a.86.86,0,0,1-.65-.79A2.77,2.77,0,0,0,41,143.35a2.86,2.86,0,0,0-3,1,1.35,1.35,0,0,1-.81.39,2.07,2.07,0,0,0-1.9,1.58,1.16,1.16,0,0,1-.55.66,2,2,0,0,0-1.21,2.22,2,2,0,0,0,2,1.59h3.64c1.27,0,2.54,0,3.8,0a2.23,2.23,0,0,0,2.19-1.86A2.19,2.19,0,0,0,43.73,146.41ZM43,150.2c-1.59,0-3.19,0-4.78,0-.86,0-1.72,0-2.58,0S34,149.63,34,148.79s.56-1.35,1.52-1.47l.28,0c-.13-1.61.47-2.15,2.13-2,.94-1.34,1.82-1.77,2.94-1.43s1.69,1.15,1.74,2.83l.56.08a1.74,1.74,0,0,1,1.47,1.76A1.68,1.68,0,0,1,43,150.2Z"/><path class="cls-11" d="M43.18,146.79l-.56-.08c0-1.68-.55-2.46-1.74-2.83s-2,.09-2.94,1.43c-1.66-.17-2.26.37-2.13,2l-.28,0c-1,.12-1.53.67-1.52,1.47s.62,1.4,1.62,1.43,1.72,0,2.58,0c1.59,0,3.19,0,4.78,0a1.68,1.68,0,0,0,1.66-1.65A1.74,1.74,0,0,0,43.18,146.79Z"/><path d="M63.48,146.41a.86.86,0,0,1-.65-.79,2.77,2.77,0,0,0-2.09-2.27,2.86,2.86,0,0,0-3,1,1.35,1.35,0,0,1-.8.39A2.07,2.07,0,0,0,55,146.27a1.18,1.18,0,0,1-.54.66,2,2,0,0,0-1.22,2.22,2,2,0,0,0,2,1.59h3.65c1.26,0,2.53,0,3.79,0a2.23,2.23,0,0,0,2.19-1.86A2.19,2.19,0,0,0,63.48,146.41Zm-.74,3.79c-1.59,0-3.18,0-4.78,0-.86,0-1.72,0-2.58,0a1.47,1.47,0,0,1-1.62-1.43c0-.8.56-1.35,1.52-1.47l.28,0c-.12-1.61.47-2.15,2.13-2,.94-1.34,1.83-1.77,2.94-1.43s1.69,1.15,1.75,2.83l.55.08a1.74,1.74,0,0,1,1.47,1.76A1.68,1.68,0,0,1,62.74,150.2Z"/><path class="cls-11" d="M62.93,146.79l-.55-.08c-.06-1.68-.55-2.46-1.75-2.83s-2,.09-2.94,1.43c-1.66-.17-2.25.37-2.13,2l-.28,0c-1,.12-1.53.67-1.52,1.47a1.47,1.47,0,0,0,1.62,1.43c.86,0,1.72,0,2.58,0,1.6,0,3.19,0,4.78,0a1.68,1.68,0,0,0,1.66-1.65A1.74,1.74,0,0,0,62.93,146.79Z"/><path d="M83.23,146.41a.87.87,0,0,1-.65-.79,2.76,2.76,0,0,0-2.09-2.27,2.86,2.86,0,0,0-3,1,1.35,1.35,0,0,1-.8.39,2.07,2.07,0,0,0-1.91,1.58,1.18,1.18,0,0,1-.54.66A2,2,0,0,0,73,149.15a2,2,0,0,0,2,1.59h3.65c1.26,0,2.53,0,3.8,0a2.22,2.22,0,0,0,2.18-1.86A2.18,2.18,0,0,0,83.23,146.41Zm-.73,3.79c-1.6,0-3.19,0-4.79,0-.86,0-1.72,0-2.58,0a1.47,1.47,0,0,1-1.62-1.43c0-.8.56-1.35,1.52-1.47l.28,0c-.12-1.61.48-2.15,2.13-2,.94-1.34,1.83-1.77,2.94-1.43s1.69,1.15,1.75,2.83l.55.08a1.73,1.73,0,0,1,1.47,1.76A1.67,1.67,0,0,1,82.5,150.2Z"/><path class="cls-11" d="M82.68,146.79l-.55-.08c-.06-1.68-.55-2.46-1.75-2.83s-2,.09-2.94,1.43c-1.65-.17-2.25.37-2.13,2l-.28,0c-1,.12-1.53.67-1.52,1.47a1.47,1.47,0,0,0,1.62,1.43c.86,0,1.72,0,2.58,0,1.6,0,3.19,0,4.79,0a1.67,1.67,0,0,0,1.65-1.65A1.73,1.73,0,0,0,82.68,146.79Z"/><path d="M103,146.41a.87.87,0,0,1-.65-.79,2.76,2.76,0,0,0-2.08-2.27,2.87,2.87,0,0,0-3,1,1.35,1.35,0,0,1-.8.39,2.07,2.07,0,0,0-1.91,1.58,1.14,1.14,0,0,1-.54.66,2,2,0,0,0-1.21,2.22,1.94,1.94,0,0,0,2,1.59h3.65c1.27,0,2.53,0,3.8,0a2.22,2.22,0,0,0,2.18-1.86A2.18,2.18,0,0,0,103,146.41Zm-.73,3.79c-1.6,0-3.19,0-4.79,0-.86,0-1.72,0-2.58,0a1.47,1.47,0,0,1-1.62-1.43c0-.8.56-1.35,1.52-1.47l.28,0c-.12-1.61.48-2.15,2.13-2,.94-1.34,1.83-1.77,2.94-1.43s1.69,1.15,1.75,2.83l.55.08a1.73,1.73,0,0,1,1.47,1.76A1.67,1.67,0,0,1,102.25,150.2Z"/><path class="cls-11" d="M102.43,146.79l-.55-.08c-.06-1.68-.55-2.46-1.75-2.83s-2,.09-2.94,1.43c-1.65-.17-2.25.37-2.13,2l-.28,0c-1,.12-1.53.67-1.52,1.47a1.47,1.47,0,0,0,1.62,1.43c.86,0,1.72,0,2.58,0,1.6,0,3.19,0,4.79,0a1.67,1.67,0,0,0,1.65-1.65A1.73,1.73,0,0,0,102.43,146.79Z"/><path d="M44.14,167.79a.85.85,0,0,1-.65-.78,2.76,2.76,0,0,0-2.09-2.27,2.86,2.86,0,0,0-3,.95,1.4,1.4,0,0,1-.8.38,2.08,2.08,0,0,0-1.9,1.59,1.14,1.14,0,0,1-.55.65,2,2,0,0,0-1.21,2.22,1.93,1.93,0,0,0,2,1.59h3.64c1.27,0,2.54,0,3.8,0a2.21,2.21,0,0,0,2.18-1.86A2.18,2.18,0,0,0,44.14,167.79Zm-.74,3.8c-1.59,0-3.19,0-4.78,0-.86,0-1.72,0-2.58,0s-1.62-.58-1.63-1.42.56-1.35,1.53-1.47l.28,0c-.13-1.6.47-2.14,2.13-2,.94-1.33,1.82-1.76,2.94-1.42S43,166.42,43,168.09l.56.09a1.71,1.71,0,0,1,1.46,1.76A1.67,1.67,0,0,1,43.4,171.59Z"/><path class="cls-11" d="M43.59,168.18l-.56-.09c-.05-1.67-.55-2.46-1.74-2.82s-2,.09-2.94,1.42c-1.66-.16-2.26.38-2.13,2l-.28,0c-1,.12-1.53.67-1.53,1.47S35,171.57,36,171.6s1.72,0,2.58,0c1.59,0,3.19,0,4.78,0a1.67,1.67,0,0,0,1.65-1.65A1.71,1.71,0,0,0,43.59,168.18Z"/><path d="M63.48,167.52a.86.86,0,0,1-.65-.78,2.74,2.74,0,0,0-2.09-2.27,2.85,2.85,0,0,0-3,.94,1.35,1.35,0,0,1-.8.39A2.08,2.08,0,0,0,55,167.39a1.16,1.16,0,0,1-.54.65,2,2,0,0,0-1.22,2.22,1.94,1.94,0,0,0,2,1.59c1.21,0,2.43,0,3.65,0v0c1.26,0,2.53,0,3.79,0A2.22,2.22,0,0,0,64.91,170,2.19,2.19,0,0,0,63.48,167.52Zm-.74,3.8c-1.59,0-3.18,0-4.78,0-.86,0-1.72,0-2.58,0a1.47,1.47,0,0,1-1.62-1.43c0-.8.56-1.34,1.52-1.46l.28,0c-.12-1.61.47-2.15,2.13-2,.94-1.34,1.83-1.77,2.94-1.43s1.69,1.16,1.75,2.83l.55.09a1.72,1.72,0,0,1,1.47,1.75A1.7,1.7,0,0,1,62.74,171.32Z"/><path class="cls-11" d="M62.93,167.91l-.55-.09c-.06-1.67-.55-2.46-1.75-2.83s-2,.09-2.94,1.43c-1.66-.17-2.25.37-2.13,2l-.28,0c-1,.12-1.53.66-1.52,1.46a1.47,1.47,0,0,0,1.62,1.43c.86,0,1.72,0,2.58,0,1.6,0,3.19,0,4.78,0a1.7,1.7,0,0,0,1.66-1.66A1.72,1.72,0,0,0,62.93,167.91Z"/><path d="M83.23,167.52a.87.87,0,0,1-.65-.78,2.73,2.73,0,0,0-2.09-2.27,2.86,2.86,0,0,0-3,.94,1.35,1.35,0,0,1-.8.39,2.08,2.08,0,0,0-1.91,1.59,1.16,1.16,0,0,1-.54.65A2,2,0,0,0,73,170.26a1.94,1.94,0,0,0,2,1.59c1.22,0,2.43,0,3.65,0v0c1.26,0,2.53,0,3.8,0A2.21,2.21,0,0,0,84.66,170,2.18,2.18,0,0,0,83.23,167.52Zm-.73,3.8c-1.6,0-3.19,0-4.79,0-.86,0-1.72,0-2.58,0a1.47,1.47,0,0,1-1.62-1.43c0-.8.56-1.34,1.52-1.46l.28,0c-.12-1.61.48-2.15,2.13-2,.94-1.34,1.83-1.77,2.94-1.43s1.69,1.16,1.75,2.83l.55.09a1.71,1.71,0,0,1,1.47,1.75A1.69,1.69,0,0,1,82.5,171.32Z"/><path class="cls-11" d="M82.68,167.91l-.55-.09c-.06-1.67-.55-2.46-1.75-2.83s-2,.09-2.94,1.43c-1.65-.17-2.25.37-2.13,2l-.28,0c-1,.12-1.53.66-1.52,1.46a1.47,1.47,0,0,0,1.62,1.43c.86,0,1.72,0,2.58,0,1.6,0,3.19,0,4.79,0a1.69,1.69,0,0,0,1.65-1.66A1.71,1.71,0,0,0,82.68,167.91Z"/><path d="M103,167.52a.87.87,0,0,1-.65-.78,2.73,2.73,0,0,0-2.08-2.27,2.87,2.87,0,0,0-3,.94,1.35,1.35,0,0,1-.8.39,2.08,2.08,0,0,0-1.91,1.59A1.12,1.12,0,0,1,94,168a2,2,0,0,0-1.21,2.22,1.93,1.93,0,0,0,2,1.59c1.22,0,2.43,0,3.65,0v0c1.27,0,2.53,0,3.8,0a2.21,2.21,0,0,0,2.18-1.86A2.18,2.18,0,0,0,103,167.52Zm-.73,3.8c-1.6,0-3.19,0-4.79,0-.86,0-1.72,0-2.58,0a1.47,1.47,0,0,1-1.62-1.43c0-.8.56-1.34,1.52-1.46l.28,0c-.12-1.61.48-2.15,2.13-2,.94-1.34,1.83-1.77,2.94-1.43s1.69,1.16,1.75,2.83c.18,0,.37.05.55.09a1.71,1.71,0,0,1,1.47,1.75A1.69,1.69,0,0,1,102.25,171.32Z"/><path class="cls-11" d="M102.43,167.91c-.18,0-.37-.06-.55-.09-.06-1.67-.55-2.46-1.75-2.83s-2,.09-2.94,1.43c-1.65-.17-2.25.37-2.13,2l-.28,0c-1,.12-1.53.66-1.52,1.46a1.47,1.47,0,0,0,1.62,1.43c.86,0,1.72,0,2.58,0,1.6,0,3.19,0,4.79,0a1.69,1.69,0,0,0,1.65-1.66A1.71,1.71,0,0,0,102.43,167.91Z"/><path d="M44.14,188.77a.85.85,0,0,1-.65-.78,2.74,2.74,0,0,0-2.09-2.27,2.87,2.87,0,0,0-3,.94,1.35,1.35,0,0,1-.8.39,2.07,2.07,0,0,0-1.9,1.59,1.14,1.14,0,0,1-.55.65,2,2,0,0,0-1.21,2.22,1.93,1.93,0,0,0,2,1.59c1.21,0,2.43,0,3.64,0v0c1.27,0,2.54,0,3.8,0a2.21,2.21,0,0,0,2.18-1.86A2.18,2.18,0,0,0,44.14,188.77Zm-.74,3.8c-1.59,0-3.19,0-4.78,0-.86,0-1.72,0-2.58,0a1.47,1.47,0,0,1-1.63-1.43c0-.8.56-1.34,1.53-1.46l.28,0c-.13-1.61.47-2.15,2.13-2,.94-1.34,1.82-1.77,2.94-1.43S43,187.4,43,189.07l.56.09a1.7,1.7,0,0,1,1.46,1.75A1.68,1.68,0,0,1,43.4,192.57Z"/><path class="cls-11" d="M43.59,189.16l-.56-.09c-.05-1.67-.55-2.46-1.74-2.83s-2,.09-2.94,1.43c-1.66-.17-2.26.37-2.13,2l-.28,0c-1,.12-1.53.66-1.53,1.46A1.47,1.47,0,0,0,36,192.58c.86,0,1.72,0,2.58,0,1.59,0,3.19,0,4.78,0a1.68,1.68,0,0,0,1.65-1.66A1.7,1.7,0,0,0,43.59,189.16Z"/><path d="M63.48,188.5a.86.86,0,0,1-.65-.78,2.74,2.74,0,0,0-2.09-2.27,2.83,2.83,0,0,0-3,.94,1.35,1.35,0,0,1-.8.39A2.07,2.07,0,0,0,55,188.37a1.19,1.19,0,0,1-.54.65,2,2,0,0,0-1.22,2.22,2,2,0,0,0,2,1.59h3.65c1.26,0,2.53,0,3.79,0A2.23,2.23,0,0,0,64.91,191,2.19,2.19,0,0,0,63.48,188.5Zm-.74,3.79c-1.59,0-3.18,0-4.78,0-.86,0-1.72,0-2.58,0a1.47,1.47,0,0,1-1.62-1.43c0-.8.56-1.35,1.52-1.46l.28,0c-.12-1.61.47-2.15,2.13-2,.94-1.34,1.83-1.77,2.94-1.43s1.69,1.15,1.75,2.83l.55.08a1.74,1.74,0,0,1,1.47,1.76A1.68,1.68,0,0,1,62.74,192.29Z"/><path class="cls-11" d="M62.93,188.88l-.55-.08c-.06-1.68-.55-2.46-1.75-2.83s-2,.09-2.94,1.43c-1.66-.17-2.25.37-2.13,2l-.28,0c-1,.11-1.53.66-1.52,1.46a1.47,1.47,0,0,0,1.62,1.43c.86,0,1.72,0,2.58,0,1.6,0,3.19,0,4.78,0a1.68,1.68,0,0,0,1.66-1.65A1.74,1.74,0,0,0,62.93,188.88Z"/><path d="M83.23,188.5a.87.87,0,0,1-.65-.78,2.73,2.73,0,0,0-2.09-2.27,2.84,2.84,0,0,0-3,.94,1.35,1.35,0,0,1-.8.39,2.07,2.07,0,0,0-1.91,1.59,1.19,1.19,0,0,1-.54.65A2,2,0,0,0,73,191.24a2,2,0,0,0,2,1.59h3.65c1.26,0,2.53,0,3.8,0A2.22,2.22,0,0,0,84.66,191,2.18,2.18,0,0,0,83.23,188.5Zm-.73,3.79c-1.6,0-3.19,0-4.79,0-.86,0-1.72,0-2.58,0a1.47,1.47,0,0,1-1.62-1.43c0-.8.56-1.35,1.52-1.46l.28,0c-.12-1.61.48-2.15,2.13-2,.94-1.34,1.83-1.77,2.94-1.43s1.69,1.15,1.75,2.83l.55.08a1.73,1.73,0,0,1,1.47,1.76A1.67,1.67,0,0,1,82.5,192.29Z"/><path class="cls-11" d="M82.68,188.88l-.55-.08c-.06-1.68-.55-2.46-1.75-2.83s-2,.09-2.94,1.43c-1.65-.17-2.25.37-2.13,2l-.28,0c-1,.11-1.53.66-1.52,1.46a1.47,1.47,0,0,0,1.62,1.43c.86,0,1.72,0,2.58,0,1.6,0,3.19,0,4.79,0a1.67,1.67,0,0,0,1.65-1.65A1.73,1.73,0,0,0,82.68,188.88Z"/><path d="M103,188.5a.87.87,0,0,1-.65-.78,2.73,2.73,0,0,0-2.08-2.27,2.85,2.85,0,0,0-3,.94,1.35,1.35,0,0,1-.8.39,2.07,2.07,0,0,0-1.91,1.59A1.15,1.15,0,0,1,94,189a2,2,0,0,0-1.21,2.22,1.94,1.94,0,0,0,2,1.59h3.65c1.27,0,2.53,0,3.8,0a2.22,2.22,0,0,0,2.18-1.86A2.18,2.18,0,0,0,103,188.5Zm-.73,3.79c-1.6,0-3.19,0-4.79,0-.86,0-1.72,0-2.58,0a1.47,1.47,0,0,1-1.62-1.43c0-.8.56-1.35,1.52-1.46l.28,0c-.12-1.61.48-2.15,2.13-2,.94-1.34,1.83-1.77,2.94-1.43s1.69,1.15,1.75,2.83l.55.08a1.73,1.73,0,0,1,1.47,1.76A1.67,1.67,0,0,1,102.25,192.29Z"/><path class="cls-11" d="M102.43,188.88l-.55-.08c-.06-1.68-.55-2.46-1.75-2.83s-2,.09-2.94,1.43c-1.65-.17-2.25.37-2.13,2l-.28,0c-1,.11-1.53.66-1.52,1.46a1.47,1.47,0,0,0,1.62,1.43c.86,0,1.72,0,2.58,0,1.6,0,3.19,0,4.79,0a1.67,1.67,0,0,0,1.65-1.65A1.73,1.73,0,0,0,102.43,188.88Z"/><path d="M55,177.87a.87.87,0,0,1-.65-.78,2.75,2.75,0,0,0-2.08-2.27,2.85,2.85,0,0,0-3,1,1.4,1.4,0,0,1-.8.38,2.1,2.1,0,0,0-1.91,1.59,1.12,1.12,0,0,1-.54.65,2,2,0,0,0-1.21,2.22,1.94,1.94,0,0,0,2,1.6h3.65c1.27,0,2.53,0,3.8,0a2.21,2.21,0,0,0,2.18-1.86A2.17,2.17,0,0,0,55,177.87Zm-.73,3.8c-1.59,0-3.19,0-4.79,0-.86,0-1.72,0-2.57,0-1,0-1.62-.58-1.63-1.42s.56-1.35,1.53-1.47l.27,0c-.12-1.6.48-2.14,2.13-2,.94-1.33,1.83-1.76,2.94-1.42s1.69,1.15,1.75,2.82l.55.09A1.72,1.72,0,0,1,56,180,1.68,1.68,0,0,1,54.3,181.67Z"/><path class="cls-11" d="M54.48,178.26l-.55-.09c-.06-1.67-.55-2.46-1.75-2.82s-2,.09-2.94,1.42c-1.65-.16-2.25.38-2.13,2l-.27,0c-1,.12-1.54.67-1.53,1.47s.62,1.39,1.63,1.42c.85,0,1.71,0,2.57,0,1.6,0,3.2,0,4.79,0A1.68,1.68,0,0,0,56,180,1.72,1.72,0,0,0,54.48,178.26Z"/><path d="M36,177.87a.87.87,0,0,1-.65-.78,2.75,2.75,0,0,0-2.08-2.27,2.85,2.85,0,0,0-3,1,1.4,1.4,0,0,1-.8.38,2.1,2.1,0,0,0-1.91,1.59,1.12,1.12,0,0,1-.54.65,2,2,0,0,0-1.21,2.22,1.94,1.94,0,0,0,2,1.6h3.65c1.27,0,2.53,0,3.8,0a2.21,2.21,0,0,0,2.18-1.86A2.18,2.18,0,0,0,36,177.87Zm-.73,3.8c-1.6,0-3.19,0-4.79,0-.86,0-1.72,0-2.58,0s-1.61-.58-1.62-1.42.56-1.35,1.52-1.47l.28,0c-.12-1.6.48-2.14,2.13-2,.94-1.33,1.83-1.76,2.94-1.42s1.69,1.15,1.75,2.82l.55.09A1.72,1.72,0,0,1,36.88,180,1.68,1.68,0,0,1,35.23,181.67Z"/><path class="cls-11" d="M35.41,178.26l-.55-.09c-.06-1.67-.55-2.46-1.75-2.82s-2,.09-2.94,1.42c-1.65-.16-2.25.38-2.13,2l-.28,0c-1,.12-1.53.67-1.52,1.47s.62,1.39,1.62,1.42,1.72,0,2.58,0c1.6,0,3.19,0,4.79,0A1.68,1.68,0,0,0,36.88,180,1.72,1.72,0,0,0,35.41,178.26Z"/><path d="M74.79,177.87a.85.85,0,0,1-.65-.78,2.77,2.77,0,0,0-2.09-2.27,2.86,2.86,0,0,0-3,1,1.4,1.4,0,0,1-.8.38,2.08,2.08,0,0,0-1.9,1.59,1.14,1.14,0,0,1-.55.65,2,2,0,0,0-1.21,2.22,1.94,1.94,0,0,0,2,1.6h3.65c1.27,0,2.53,0,3.8,0a2.21,2.21,0,0,0,2.18-1.86A2.18,2.18,0,0,0,74.79,177.87Zm-.74,3.8c-1.59,0-3.19,0-4.78,0-.86,0-1.72,0-2.58,0s-1.62-.58-1.63-1.42.56-1.35,1.53-1.47l.28,0c-.13-1.6.47-2.14,2.13-2,.93-1.33,1.82-1.76,2.94-1.42s1.69,1.15,1.74,2.82l.56.09A1.71,1.71,0,0,1,75.7,180,1.68,1.68,0,0,1,74.05,181.67Z"/><path class="cls-11" d="M74.24,178.26l-.56-.09c-.05-1.67-.55-2.46-1.74-2.82s-2,.09-2.94,1.42c-1.66-.16-2.26.38-2.13,2l-.28,0c-1,.12-1.53.67-1.53,1.47s.63,1.39,1.63,1.42,1.72,0,2.58,0c1.59,0,3.19,0,4.78,0A1.68,1.68,0,0,0,75.7,180,1.71,1.71,0,0,0,74.24,178.26Z"/><path d="M94.54,177.87a.86.86,0,0,1-.65-.78,2.76,2.76,0,0,0-2.09-2.27,2.84,2.84,0,0,0-3,1,1.46,1.46,0,0,1-.81.38,2.09,2.09,0,0,0-1.9,1.59,1.14,1.14,0,0,1-.55.65,2,2,0,0,0-1.21,2.22,2,2,0,0,0,2,1.6H90c1.27,0,2.54,0,3.8,0A2.2,2.2,0,0,0,96,180.35,2.18,2.18,0,0,0,94.54,177.87Zm-.74,3.8c-1.59,0-3.19,0-4.78,0-.86,0-1.72,0-2.58,0s-1.62-.58-1.62-1.42.56-1.35,1.52-1.47l.28,0c-.13-1.6.47-2.14,2.13-2,.94-1.33,1.82-1.76,2.94-1.42s1.69,1.15,1.74,2.82l.56.09A1.73,1.73,0,0,1,95.46,180,1.69,1.69,0,0,1,93.8,181.67Z"/><path class="cls-11" d="M94,178.26l-.56-.09c-.05-1.67-.55-2.46-1.74-2.82s-2,.09-2.94,1.42c-1.66-.16-2.26.38-2.13,2l-.28,0c-1,.12-1.53.67-1.52,1.47s.62,1.39,1.62,1.42,1.72,0,2.58,0c1.59,0,3.19,0,4.78,0A1.69,1.69,0,0,0,95.46,180,1.73,1.73,0,0,0,94,178.26Z"/><path d="M114.29,177.87a.86.86,0,0,1-.65-.78,2.76,2.76,0,0,0-2.09-2.27,2.84,2.84,0,0,0-3,1,1.4,1.4,0,0,1-.81.38,2.09,2.09,0,0,0-1.9,1.59,1.14,1.14,0,0,1-.55.65,2,2,0,0,0-1.21,2.22,2,2,0,0,0,2,1.6h3.64c1.27,0,2.54,0,3.8,0a2.22,2.22,0,0,0,2.19-1.86A2.19,2.19,0,0,0,114.29,177.87Zm-.74,3.8c-1.59,0-3.19,0-4.78,0-.86,0-1.72,0-2.58,0s-1.61-.58-1.62-1.42.56-1.35,1.52-1.47l.28,0c-.12-1.6.47-2.14,2.13-2,.94-1.33,1.83-1.76,2.94-1.42s1.69,1.15,1.74,2.82l.56.09a1.73,1.73,0,0,1,1.47,1.76A1.69,1.69,0,0,1,113.55,181.67Z"/><path class="cls-11" d="M113.74,178.26l-.56-.09c-.05-1.67-.55-2.46-1.74-2.82s-2,.09-2.94,1.42c-1.66-.16-2.25.38-2.13,2l-.28,0c-1,.12-1.53.67-1.52,1.47s.62,1.39,1.62,1.42,1.72,0,2.58,0c1.59,0,3.19,0,4.78,0a1.69,1.69,0,0,0,1.66-1.65A1.73,1.73,0,0,0,113.74,178.26Z"/><path d="M55,198.85a.87.87,0,0,1-.65-.78,2.73,2.73,0,0,0-2.08-2.27,2.85,2.85,0,0,0-3,.95,1.4,1.4,0,0,1-.8.38,2.09,2.09,0,0,0-1.91,1.59,1.12,1.12,0,0,1-.54.65,2,2,0,0,0-1.21,2.22,1.93,1.93,0,0,0,2,1.59h3.65v0c1.27,0,2.53,0,3.8,0a2.21,2.21,0,0,0,2.18-1.86A2.17,2.17,0,0,0,55,198.85Zm-.73,3.8c-1.59,0-3.19,0-4.79,0-.86,0-1.72,0-2.57,0-1,0-1.62-.59-1.63-1.42s.56-1.35,1.53-1.47l.27,0c-.12-1.61.48-2.15,2.13-2,.94-1.34,1.83-1.77,2.94-1.43s1.69,1.16,1.75,2.83c.18,0,.37,0,.55.09A1.71,1.71,0,0,1,56,201,1.69,1.69,0,0,1,54.3,202.65Z"/><path class="cls-11" d="M54.48,199.24c-.18,0-.37-.06-.55-.09-.06-1.67-.55-2.46-1.75-2.83s-2,.09-2.94,1.43c-1.65-.17-2.25.37-2.13,2l-.27,0c-1,.12-1.54.66-1.53,1.47s.62,1.39,1.63,1.42c.85,0,1.71,0,2.57,0,1.6,0,3.2,0,4.79,0A1.69,1.69,0,0,0,56,201,1.71,1.71,0,0,0,54.48,199.24Z"/><path d="M36,198.85a.87.87,0,0,1-.65-.78,2.73,2.73,0,0,0-2.08-2.27,2.85,2.85,0,0,0-3,.95,1.4,1.4,0,0,1-.8.38,2.09,2.09,0,0,0-1.91,1.59,1.12,1.12,0,0,1-.54.65,2,2,0,0,0-1.21,2.22,1.93,1.93,0,0,0,2,1.59h3.65v0c1.27,0,2.53,0,3.8,0a2.21,2.21,0,0,0,2.18-1.86A2.18,2.18,0,0,0,36,198.85Zm-.73,3.8c-1.6,0-3.19,0-4.79,0-.86,0-1.72,0-2.58,0a1.46,1.46,0,0,1-1.62-1.42c0-.81.56-1.35,1.52-1.47l.28,0c-.12-1.61.48-2.15,2.13-2,.94-1.34,1.83-1.77,2.94-1.43s1.69,1.16,1.75,2.83c.18,0,.37,0,.55.09A1.71,1.71,0,0,1,36.88,201,1.69,1.69,0,0,1,35.23,202.65Z"/><path class="cls-11" d="M35.41,199.24c-.18,0-.37-.06-.55-.09-.06-1.67-.55-2.46-1.75-2.83s-2,.09-2.94,1.43c-1.65-.17-2.25.37-2.13,2l-.28,0c-1,.12-1.53.66-1.52,1.47a1.46,1.46,0,0,0,1.62,1.42c.86,0,1.72,0,2.58,0,1.6,0,3.19,0,4.79,0A1.69,1.69,0,0,0,36.88,201,1.71,1.71,0,0,0,35.41,199.24Z"/><path d="M74.79,198.85a.85.85,0,0,1-.65-.78,2.76,2.76,0,0,0-2.09-2.27,2.86,2.86,0,0,0-3,.95,1.4,1.4,0,0,1-.8.38,2.07,2.07,0,0,0-1.9,1.59,1.14,1.14,0,0,1-.55.65,2,2,0,0,0-1.21,2.22,1.93,1.93,0,0,0,2,1.59h3.65v0c1.27,0,2.53,0,3.8,0a2.21,2.21,0,0,0,2.18-1.86A2.18,2.18,0,0,0,74.79,198.85Zm-.74,3.8c-1.59,0-3.19,0-4.78,0-.86,0-1.72,0-2.58,0s-1.62-.59-1.63-1.42.56-1.35,1.53-1.47l.28,0c-.13-1.61.47-2.15,2.13-2,.93-1.34,1.82-1.77,2.94-1.43s1.69,1.16,1.74,2.83l.56.09a1.72,1.72,0,0,1-.19,3.41Z"/><path class="cls-11" d="M74.24,199.24l-.56-.09c-.05-1.67-.55-2.46-1.74-2.83s-2,.09-2.94,1.43c-1.66-.17-2.26.37-2.13,2l-.28,0c-1,.12-1.53.66-1.53,1.47s.63,1.39,1.63,1.42,1.72,0,2.58,0c1.59,0,3.19,0,4.78,0a1.72,1.72,0,0,0,.19-3.41Z"/><path d="M94.54,198.85a.86.86,0,0,1-.65-.78,2.74,2.74,0,0,0-2.09-2.27,2.84,2.84,0,0,0-3,.95,1.46,1.46,0,0,1-.81.38,2.08,2.08,0,0,0-1.9,1.59,1.14,1.14,0,0,1-.55.65,2,2,0,0,0-1.21,2.22,1.94,1.94,0,0,0,2,1.59H90v0c1.27,0,2.54,0,3.8,0A2.2,2.2,0,0,0,96,201.33,2.18,2.18,0,0,0,94.54,198.85Zm-.74,3.8c-1.59,0-3.19,0-4.78,0-.86,0-1.72,0-2.58,0s-1.62-.59-1.62-1.42.56-1.35,1.52-1.47l.28,0c-.13-1.61.47-2.15,2.13-2,.94-1.34,1.82-1.77,2.94-1.43s1.69,1.16,1.74,2.83l.56.09A1.72,1.72,0,0,1,95.46,201,1.7,1.7,0,0,1,93.8,202.65Z"/><path class="cls-11" d="M94,199.24l-.56-.09c-.05-1.67-.55-2.46-1.74-2.83s-2,.09-2.94,1.43c-1.66-.17-2.26.37-2.13,2l-.28,0c-1,.12-1.53.66-1.52,1.47s.62,1.39,1.62,1.42,1.72,0,2.58,0c1.59,0,3.19,0,4.78,0A1.7,1.7,0,0,0,95.46,201,1.72,1.72,0,0,0,94,199.24Z"/><path d="M114.29,198.85a.86.86,0,0,1-.65-.78,2.74,2.74,0,0,0-2.09-2.27,2.84,2.84,0,0,0-3,.95,1.4,1.4,0,0,1-.81.38,2.08,2.08,0,0,0-1.9,1.59,1.14,1.14,0,0,1-.55.65,2,2,0,0,0-1.21,2.22,1.94,1.94,0,0,0,2,1.59h3.64v0c1.27,0,2.54,0,3.8,0a2.22,2.22,0,0,0,2.19-1.86A2.19,2.19,0,0,0,114.29,198.85Zm-.74,3.8c-1.59,0-3.19,0-4.78,0-.86,0-1.72,0-2.58,0a1.46,1.46,0,0,1-1.62-1.42c0-.81.56-1.35,1.52-1.47l.28,0c-.12-1.61.47-2.15,2.13-2,.94-1.34,1.83-1.77,2.94-1.43s1.69,1.16,1.74,2.83l.56.09a1.72,1.72,0,0,1,1.47,1.75A1.7,1.7,0,0,1,113.55,202.65Z"/><path class="cls-11" d="M113.74,199.24l-.56-.09c-.05-1.67-.55-2.46-1.74-2.83s-2,.09-2.94,1.43c-1.66-.17-2.25.37-2.13,2l-.28,0c-1,.12-1.53.66-1.52,1.47a1.46,1.46,0,0,0,1.62,1.42c.86,0,1.72,0,2.58,0,1.59,0,3.19,0,4.78,0a1.7,1.7,0,0,0,1.66-1.66A1.72,1.72,0,0,0,113.74,199.24Z"/><path d="M64.57,209.88a.85.85,0,0,1-.65-.78,2.77,2.77,0,0,0-2.09-2.27,2.84,2.84,0,0,0-3,.95,1.41,1.41,0,0,1-.81.39,2.07,2.07,0,0,0-1.9,1.58,1.16,1.16,0,0,1-.55.66,2,2,0,0,0-1.21,2.22,2,2,0,0,0,2,1.59H60c1.27,0,2.54,0,3.8,0a2.24,2.24,0,0,0,.76-4.34Zm-.74,3.8c-1.59,0-3.19,0-4.78,0-.86,0-1.72,0-2.58,0a1.47,1.47,0,0,1-1.62-1.43c0-.8.56-1.35,1.52-1.47l.28,0c-.12-1.61.47-2.15,2.13-2,.94-1.34,1.83-1.77,2.94-1.43s1.69,1.15,1.74,2.83l.56.08A1.73,1.73,0,0,1,65.49,212,1.68,1.68,0,0,1,63.83,213.68Z"/><path class="cls-11" d="M64,210.27l-.56-.08c-.05-1.68-.55-2.47-1.74-2.83s-2,.09-2.94,1.43c-1.66-.17-2.25.37-2.13,2l-.28,0c-1,.12-1.53.67-1.52,1.47a1.47,1.47,0,0,0,1.62,1.43c.86,0,1.72,0,2.58,0,1.59,0,3.19,0,4.78,0A1.68,1.68,0,0,0,65.49,212,1.73,1.73,0,0,0,64,210.27Z"/><path d="M45.5,209.88a.85.85,0,0,1-.65-.78,2.77,2.77,0,0,0-2.09-2.27,2.84,2.84,0,0,0-3,.95,1.41,1.41,0,0,1-.81.39,2.07,2.07,0,0,0-1.9,1.58,1.16,1.16,0,0,1-.55.66,2,2,0,0,0-1.21,2.22,2,2,0,0,0,2,1.59h3.64c1.27,0,2.54,0,3.8,0a2.24,2.24,0,0,0,.76-4.34Zm-.74,3.8c-1.59,0-3.19,0-4.78,0-.86,0-1.72,0-2.58,0s-1.62-.59-1.62-1.43.56-1.35,1.52-1.47l.28,0c-.13-1.61.47-2.15,2.13-2,.94-1.34,1.83-1.77,2.94-1.43s1.69,1.15,1.74,2.83l.56.08A1.73,1.73,0,0,1,46.42,212,1.68,1.68,0,0,1,44.76,213.68Z"/><path class="cls-11" d="M45,210.27l-.56-.08c0-1.68-.55-2.47-1.74-2.83s-2,.09-2.94,1.43c-1.66-.17-2.26.37-2.13,2l-.28,0c-1,.12-1.53.67-1.52,1.47s.62,1.4,1.62,1.43,1.72,0,2.58,0c1.59,0,3.19,0,4.78,0A1.68,1.68,0,0,0,46.42,212,1.73,1.73,0,0,0,45,210.27Z"/><path d="M84.32,209.88a.86.86,0,0,1-.65-.78,2.76,2.76,0,0,0-2.09-2.27,2.84,2.84,0,0,0-3,.95,1.41,1.41,0,0,1-.8.39,2.07,2.07,0,0,0-1.91,1.58,1.18,1.18,0,0,1-.54.66,2,2,0,0,0-1.22,2.22,2,2,0,0,0,2,1.59h3.65c1.26,0,2.53,0,3.8,0a2.24,2.24,0,0,0,.75-4.34Zm-.73,3.8c-1.6,0-3.19,0-4.79,0-.86,0-1.72,0-2.58,0a1.47,1.47,0,0,1-1.62-1.43c0-.8.56-1.35,1.52-1.47l.28,0c-.12-1.61.48-2.15,2.13-2,.94-1.34,1.83-1.77,2.94-1.43s1.69,1.15,1.75,2.83l.55.08A1.72,1.72,0,0,1,85.24,212,1.67,1.67,0,0,1,83.59,213.68Z"/><path class="cls-11" d="M83.77,210.27l-.55-.08c-.06-1.68-.55-2.47-1.75-2.83s-2,.09-2.94,1.43c-1.65-.17-2.25.37-2.13,2l-.28,0c-1,.12-1.53.67-1.52,1.47a1.47,1.47,0,0,0,1.62,1.43c.86,0,1.72,0,2.58,0,1.6,0,3.19,0,4.79,0A1.67,1.67,0,0,0,85.24,212,1.72,1.72,0,0,0,83.77,210.27Z"/><path d="M104.07,209.88a.86.86,0,0,1-.65-.78,2.76,2.76,0,0,0-2.08-2.27,2.85,2.85,0,0,0-3,.95,1.41,1.41,0,0,1-.8.39,2.07,2.07,0,0,0-1.91,1.58,1.14,1.14,0,0,1-.54.66,2,2,0,0,0-1.21,2.22,1.94,1.94,0,0,0,2,1.59h3.65c1.26,0,2.53,0,3.8,0a2.24,2.24,0,0,0,.75-4.34Zm-.73,3.8c-1.6,0-3.19,0-4.79,0-.86,0-1.72,0-2.58,0a1.47,1.47,0,0,1-1.62-1.43c0-.8.56-1.35,1.52-1.47l.28,0c-.12-1.61.48-2.15,2.13-2,.94-1.34,1.83-1.77,2.94-1.43s1.69,1.15,1.75,2.83l.55.08A1.72,1.72,0,0,1,105,212,1.67,1.67,0,0,1,103.34,213.68Z"/><path class="cls-11" d="M103.52,210.27l-.55-.08c-.06-1.68-.55-2.47-1.75-2.83s-2,.09-2.94,1.43c-1.65-.17-2.25.37-2.13,2l-.28,0c-1,.12-1.53.67-1.52,1.47A1.47,1.47,0,0,0,96,213.7c.86,0,1.72,0,2.58,0,1.6,0,3.19,0,4.79,0A1.67,1.67,0,0,0,105,212,1.72,1.72,0,0,0,103.52,210.27Z"/><path d="M123.82,209.88a.84.84,0,0,1-.64-.78,2.78,2.78,0,0,0-2.09-2.27,2.85,2.85,0,0,0-3,.95,1.41,1.41,0,0,1-.8.39,2.06,2.06,0,0,0-1.9,1.58,1.2,1.2,0,0,1-.55.66,2,2,0,0,0-1.21,2.22,1.94,1.94,0,0,0,2,1.59h3.65c1.27,0,2.53,0,3.8,0a2.2,2.2,0,0,0,2.18-1.86A2.17,2.17,0,0,0,123.82,209.88Zm-.73,3.8c-1.59,0-3.19,0-4.78,0-.86,0-1.73,0-2.58,0-1,0-1.62-.59-1.63-1.43s.56-1.35,1.53-1.47l.27,0c-.12-1.61.48-2.15,2.14-2,.93-1.34,1.82-1.77,2.94-1.43s1.69,1.15,1.74,2.83l.55.08a1.72,1.72,0,0,1,1.47,1.76A1.67,1.67,0,0,1,123.09,213.68Z"/><path class="cls-11" d="M123.27,210.27l-.55-.08c0-1.68-.55-2.47-1.74-2.83s-2,.09-2.94,1.43c-1.66-.17-2.26.37-2.14,2l-.27,0c-1,.12-1.54.67-1.53,1.47s.62,1.4,1.63,1.43c.85,0,1.72,0,2.58,0,1.59,0,3.19,0,4.78,0a1.67,1.67,0,0,0,1.65-1.65A1.72,1.72,0,0,0,123.27,210.27Z"/><path d="M75.19,220a.86.86,0,0,1-.65-.78,2.76,2.76,0,0,0-2.08-2.27,2.85,2.85,0,0,0-3,1,1.41,1.41,0,0,1-.8.39,2.08,2.08,0,0,0-1.91,1.58,1.14,1.14,0,0,1-.54.66A2,2,0,0,0,65,222.71a1.94,1.94,0,0,0,2,1.59h3.65c1.27,0,2.53,0,3.8,0a2.24,2.24,0,0,0,.75-4.34Zm-.73,3.8c-1.59,0-3.19,0-4.79,0-.85,0-1.72,0-2.57,0-1,0-1.62-.59-1.63-1.43S66,221,67,220.88l.27,0c-.12-1.61.48-2.15,2.14-2,.93-1.34,1.82-1.77,2.93-1.43s1.7,1.15,1.75,2.83l.55.08a1.72,1.72,0,0,1,1.47,1.76A1.67,1.67,0,0,1,74.46,223.76Z"/><path class="cls-11" d="M74.64,220.35l-.55-.08c0-1.68-.55-2.47-1.75-2.83s-2,.09-2.93,1.43c-1.66-.17-2.26.37-2.14,2l-.27,0c-1,.12-1.54.67-1.53,1.47s.62,1.4,1.63,1.43c.85,0,1.72,0,2.57,0,1.6,0,3.2,0,4.79,0a1.67,1.67,0,0,0,1.65-1.65A1.72,1.72,0,0,0,74.64,220.35Z"/><path d="M56.12,220a.86.86,0,0,1-.65-.78,2.76,2.76,0,0,0-2.08-2.27,2.85,2.85,0,0,0-3,1,1.41,1.41,0,0,1-.8.39,2.08,2.08,0,0,0-1.91,1.58,1.14,1.14,0,0,1-.54.66,2,2,0,0,0-1.21,2.22,1.94,1.94,0,0,0,2,1.59h3.65c1.27,0,2.53,0,3.8,0a2.24,2.24,0,0,0,.75-4.34Zm-.73,3.8c-1.6,0-3.19,0-4.79,0-.86,0-1.72,0-2.58,0a1.47,1.47,0,0,1-1.62-1.43c0-.8.56-1.35,1.52-1.47l.28,0c-.12-1.61.48-2.15,2.13-2,.94-1.34,1.83-1.77,2.94-1.43S55,218.59,55,220.27l.55.08A1.72,1.72,0,0,1,57,222.11,1.67,1.67,0,0,1,55.39,223.76Z"/><path class="cls-11" d="M55.57,220.35l-.55-.08c-.06-1.68-.55-2.47-1.75-2.83s-2,.09-2.94,1.43c-1.65-.17-2.25.37-2.13,2l-.28,0c-1,.12-1.53.67-1.52,1.47A1.47,1.47,0,0,0,48,223.78c.86,0,1.72,0,2.58,0,1.6,0,3.19,0,4.79,0A1.67,1.67,0,0,0,57,222.11,1.72,1.72,0,0,0,55.57,220.35Z"/><path d="M95,220a.84.84,0,0,1-.65-.78,2.77,2.77,0,0,0-2.09-2.27,2.86,2.86,0,0,0-3,1,1.41,1.41,0,0,1-.8.39,2.06,2.06,0,0,0-1.9,1.58,1.16,1.16,0,0,1-.55.66,2,2,0,0,0-1.21,2.22,2,2,0,0,0,2,1.59h3.64c1.27,0,2.54,0,3.8,0A2.24,2.24,0,0,0,95,220Zm-.74,3.8c-1.59,0-3.19,0-4.78,0-.86,0-1.72,0-2.58,0a1.47,1.47,0,0,1-1.63-1.43c0-.8.56-1.35,1.53-1.47l.28,0c-.13-1.61.47-2.15,2.13-2,.94-1.34,1.82-1.77,2.94-1.43s1.69,1.15,1.74,2.83l.56.08a1.71,1.71,0,0,1,1.46,1.76A1.66,1.66,0,0,1,94.21,223.76Z"/><path class="cls-11" d="M94.4,220.35l-.56-.08c0-1.68-.55-2.47-1.74-2.83s-2,.09-2.94,1.43c-1.66-.17-2.26.37-2.13,2l-.28,0c-1,.12-1.53.67-1.53,1.47a1.47,1.47,0,0,0,1.63,1.43c.86,0,1.72,0,2.58,0,1.59,0,3.19,0,4.78,0a1.66,1.66,0,0,0,1.65-1.65A1.71,1.71,0,0,0,94.4,220.35Z"/><path d="M114.7,220a.85.85,0,0,1-.65-.78,2.77,2.77,0,0,0-2.09-2.27,2.84,2.84,0,0,0-3,1,1.41,1.41,0,0,1-.81.39,2.07,2.07,0,0,0-1.9,1.58,1.16,1.16,0,0,1-.55.66,2,2,0,0,0-1.21,2.22,2,2,0,0,0,2,1.59h3.64c1.27,0,2.54,0,3.8,0a2.24,2.24,0,0,0,.76-4.34Zm-.74,3.8c-1.59,0-3.19,0-4.78,0-.86,0-1.72,0-2.58,0s-1.62-.59-1.62-1.43.56-1.35,1.52-1.47l.28,0c-.13-1.61.47-2.15,2.13-2,.94-1.34,1.82-1.77,2.94-1.43s1.69,1.15,1.74,2.83l.56.08a1.73,1.73,0,0,1,1.47,1.76A1.68,1.68,0,0,1,114,223.76Z"/><path class="cls-11" d="M114.15,220.35l-.56-.08c0-1.68-.55-2.47-1.74-2.83s-2,.09-2.94,1.43c-1.66-.17-2.26.37-2.13,2l-.28,0c-1,.12-1.53.67-1.52,1.47s.62,1.4,1.62,1.43,1.72,0,2.58,0c1.59,0,3.19,0,4.78,0a1.68,1.68,0,0,0,1.66-1.65A1.73,1.73,0,0,0,114.15,220.35Z"/><path d="M74.65,156.76A.86.86,0,0,1,74,156a2.74,2.74,0,0,0-2.09-2.27,2.83,2.83,0,0,0-3,.94,1.35,1.35,0,0,1-.8.39,2.08,2.08,0,0,0-1.91,1.59,1.19,1.19,0,0,1-.54.65,2,2,0,0,0-1.22,2.22,1.94,1.94,0,0,0,2,1.59H70.1v0c1.26,0,2.53,0,3.79,0a2.23,2.23,0,0,0,2.19-1.86A2.19,2.19,0,0,0,74.65,156.76Zm-.74,3.79c-1.59,0-3.18,0-4.78,0-.86,0-1.72,0-2.58,0a1.47,1.47,0,0,1-1.62-1.43c0-.8.56-1.35,1.52-1.46l.28,0c-.12-1.61.47-2.15,2.13-2,.94-1.34,1.83-1.77,2.94-1.43s1.69,1.15,1.75,2.83l.55.09a1.72,1.72,0,0,1,1.47,1.75A1.68,1.68,0,0,1,73.91,160.55Z"/><path class="cls-11" d="M74.1,157.15l-.55-.09c-.06-1.68-.55-2.46-1.75-2.83s-2,.09-2.94,1.43c-1.66-.17-2.25.37-2.13,2l-.28,0c-1,.11-1.53.66-1.52,1.46a1.47,1.47,0,0,0,1.62,1.43c.86,0,1.72,0,2.58,0,1.6,0,3.19,0,4.78,0a1.68,1.68,0,0,0,1.66-1.65A1.72,1.72,0,0,0,74.1,157.15Z"/><path d="M94.81,156.76a.86.86,0,0,1-.65-.78,2.74,2.74,0,0,0-2.09-2.27,2.83,2.83,0,0,0-3,.94,1.35,1.35,0,0,1-.8.39,2.08,2.08,0,0,0-1.91,1.59,1.19,1.19,0,0,1-.54.65,2,2,0,0,0-1.22,2.22,1.94,1.94,0,0,0,2,1.59h3.65v0c1.26,0,2.53,0,3.79,0a2.23,2.23,0,0,0,2.19-1.86A2.19,2.19,0,0,0,94.81,156.76Zm-.73,3.79c-1.6,0-3.19,0-4.79,0-.86,0-1.72,0-2.58,0a1.47,1.47,0,0,1-1.62-1.43c0-.8.56-1.35,1.52-1.46l.28,0c-.12-1.61.48-2.15,2.13-2,.94-1.34,1.83-1.77,2.94-1.43s1.69,1.15,1.75,2.83l.55.09a1.71,1.71,0,0,1,1.47,1.75A1.68,1.68,0,0,1,94.08,160.55Z"/><path class="cls-11" d="M94.26,157.15l-.55-.09c-.06-1.68-.55-2.46-1.75-2.83s-2,.09-2.94,1.43c-1.65-.17-2.25.37-2.13,2l-.28,0c-1,.11-1.53.66-1.52,1.46a1.47,1.47,0,0,0,1.62,1.43c.86,0,1.72,0,2.58,0,1.6,0,3.19,0,4.79,0a1.68,1.68,0,0,0,1.65-1.65A1.71,1.71,0,0,0,94.26,157.15Z"/></g></g><g id="nomal_bottom"><path class="cls-2" d="M118.92,223.17H29.49c0,.43,0,.86,0,1.29,0,12.28,5.1,22.83,13.11,30.91,2.95,3,6.18,6.13,9.87,8.19.75.41,1.5.81,2.27,1.19-2.19,13.75-5.5,41.38-1.19,65.55-4.66,1-14.84,4-13.64,10.93l27.79.27a2.07,2.07,0,0,0,.46-.27l23.33.27s10.17,1.81,5-14.71l-.15,0a7.87,7.87,0,0,0-.12-1c-4.43-22.13-1.4-48.6.67-61.83,1.07-.58,2.15-1.21,3.21-1.92a39.08,39.08,0,0,0,4.54-3.52c.81-.75,1.59-1.55,2.35-2.38a44.34,44.34,0,0,0,7-10.17v0c.32-.63.61-1.28.89-1.93.14-.32.28-.63.42-1s.32-.82.48-1.23.35-.93.52-1.41.38-1.13.56-1.7l.18-.57a47.58,47.58,0,0,0,1.53-7.36c.18-1.49.3-3,.38-4.49,0-.64.06-1.27.06-1.91C119,224,118.93,223.6,118.92,223.17ZM69.77,335.08a27.15,27.15,0,0,0-1.12-5.41c-4.3-21.53-1.56-47.16.5-60.72l.55,0c1,.07,2.06.13,3.13.13,0,0,.56.06,1.55.09a45.45,45.45,0,0,0,6.58-.32c-2,15.36-3.69,39,.5,59.91a7.09,7.09,0,0,0,.39,1.31C79.2,330.62,73.22,332.07,69.77,335.08Z"/><circle class="cls-5" cx="69.66" cy="234.03" r="2.02"/><path class="cls-11" d="M81.48,328.8a7.32,7.32,0,0,0,.39,1.31c-2.66.51-8.63,2-12.08,5a26.94,26.94,0,0,0-1.12-5.4h0a116.15,116.15,0,0,1-1.81-13.49L51.92,317.3a129.08,129.08,0,0,0,1.61,13c-4.66,1-14.84,4-13.64,10.93l27.78.28H91.28l.3,0c1.1.14,9.73.77,4.88-14.73l-.15,0a7.87,7.87,0,0,0-.12-1,112.07,112.07,0,0,1-1.67-11.76l-15,1.12A126.78,126.78,0,0,0,81.48,328.8Z"/><path class="cls-12" d="M53.07,317.42a30,30,0,0,0,.19,4"/><path class="cls-12" d="M54.38,317.35c.21,1.36.36,2.72.46,4.09"/><path class="cls-12" d="M56,317.21c.21,1.36.36,2.72.45,4.09"/><path class="cls-12" d="M57.65,317.08c.21,1.35.36,2.72.46,4.09"/><path class="cls-12" d="M59.29,316.94c.2,1.36.36,2.72.45,4.09"/><path class="cls-12" d="M60.92,316.8c.21,1.36.36,2.73.46,4.09"/><path class="cls-12" d="M62.56,316.67c.2,1.35.36,2.72.45,4.09"/><path class="cls-12" d="M64.19,316.53c.21,1.36.36,2.72.46,4.09"/><path class="cls-12" d="M65.82,316.4c.21,1.35.37,2.72.46,4.09"/><path class="cls-12" d="M80.75,315.26a28.34,28.34,0,0,0,.19,4"/><path class="cls-12" d="M82.06,315.19c.21,1.36.36,2.72.45,4.09"/><path class="cls-12" d="M83.69,315.06c.21,1.35.36,2.72.46,4.09"/><path class="cls-12" d="M85.33,314.92c.2,1.36.36,2.72.45,4.09"/><path class="cls-12" d="M87,314.78c.21,1.36.36,2.73.46,4.09"/><path class="cls-12" d="M88.6,314.65c.2,1.35.36,2.72.45,4.09"/><path class="cls-12" d="M90.23,314.51c.21,1.36.36,2.72.46,4.09"/><path class="cls-12" d="M91.86,314.38c.21,1.35.37,2.72.46,4.09"/><path class="cls-12" d="M93.5,314.24c.21,1.36.36,2.72.46,4.09"/><path class="cls-7" d="M119.51,224.42c0-.44,0-.87,0-1.3H30c0,.43,0,.86,0,1.3,0,24.71,19.68,45.26,44.75,44.75l.51,0a15.55,15.55,0,0,1,14.81-11.84,15.85,15.85,0,0,1,10.28,4.39A45.29,45.29,0,0,0,119.51,224.42Z"/><line class="cls-13" x1="31.85" y1="228.62" x2="32.85" y2="228.62"/><line class="cls-14" x1="34.83" y1="228.62" x2="117.11" y2="228.62"/><line class="cls-13" x1="118.1" y1="228.62" x2="119.1" y2="228.62"/><line class="cls-15" x1="60.46" y1="228.82" x2="49.01" y2="260.36"/><line class="cls-15" x1="74.55" y1="228.75" x2="86.68" y2="257.09"/></g></svg>